<?xml version="1.0" encoding="UTF-8"?>
<!-- Generator: visioncortex VTracer -->
<svg id="svg" version="1.1" xmlns="http://www.w3.org/2000/svg" style="display: block;" viewBox="0 0 1024 1024"><path d="M0,0 Z M-35,0 L-25,0 L-25,1 L-20,1 L-20,0 L-15,0 L-13,0 L-8,0 L-7,1 L19,1 L48,2 L49,0 L49,2 L51,2 L52,0 L53,1 L54,23 L75,24 L75,41 L74,48 L76,49 L75,53 L74,66 L76,66 L77,63 L81,65 L81,64 L88,64 L88,66 L99,66 L100,64 L100,66 L115,66 L114,60 L115,46 L113,46 L112,43 L114,43 L114,45 L117,44 L119,45 L120,43 L120,45 L131,44 L146,44 L147,42 L152,44 L175,44 L178,44 L199,44 L202,44 L213,44 L216,45 L217,43 L217,45 L226,44 L238,44 L242,45 L243,43 L246,44 L258,44 L260,42 L260,44 L327,44 L330,45 L331,43 L331,45 L336,44 L338,45 L339,42 L339,45 L342,44 L344,45 L345,43 L350,46 L350,48 L348,48 L347,65 L358,64 L363,65 L367,64 L368,65 L369,77 L368,86 L409,85 L411,87 L411,104 L414,105 L411,106 L432,107 L432,168 L439,168 L440,170 L433,170 L432,171 L449,170 L452,171 L453,335 L457,337 L453,337 L456,338 L471,338 L473,337 L473,570 L472,571 L464,571 L464,573 L460,572 L459,574 L455,573 L457,572 L452,570 L452,613 L450,614 L449,616 L444,616 L441,615 L440,614 L437,616 L432,615 L432,634 L411,634 L411,646 L412,651 L413,655 L400,656 L390,656 L391,665 L392,669 L391,675 L390,676 L373,677 L371,680 L370,679 L370,691 L373,694 L375,694 L375,696 L385,695 L391,696 L390,704 L392,704 L391,706 L392,707 L392,716 L394,716 L395,714 L395,717 L403,715 L408,716 L429,716 L432,717 L433,715 L441,716 L443,715 L446,716 L447,714 L447,717 L450,716 L455,718 L454,721 L453,721 L453,735 L479,736 L479,737 L513,737 L516,740 L515,759 L517,759 L518,757 L532,758 L553,758 L557,760 L556,780 L560,778 L568,776 L568,779 L576,779 L576,776 L578,776 L579,792 L578,799 L580,800 L590,801 L591,799 L596,800 L599,800 L600,811 L600,862 L601,864 L618,864 L621,865 L622,889 L622,946 L623,948 L621,948 L622,969 L621,983 L624,984 L-264,984 L-263,982 L-261,983 L-262,977 L-262,933 L-264,932 L-264,922 L-262,922 L-262,822 L-261,820 L-257,819 L-244,820 L-244,818 L-241,817 L-240,780 L-224,780 L-223,776 L-218,775 L-220,763 L-221,761 L-219,761 L-219,759 L-216,758 L-177,759 L-178,750 L-177,745 L-180,744 L-180,742 L-177,742 L-178,736 L-136,735 L-136,717 L-130,715 L-129,716 L-127,714 L-123,715 L-122,716 L-115,716 L-113,714 L-113,717 L-104,716 L-96,716 L-96,696 L-72,695 L-56,695 L-53,690 L-53,688 L-55,687 L-53,687 L-53,675 L-49,674 L-38,674 L-34,672 L-32,672 L-32,653 L-33,651 L-32,642 L-32,633 L-30,632 L-10,633 L-10,612 L4,611 L8,608 L8,552 L10,551 L10,510 L9,510 L8,489 L9,487 L-3,488 L-9,487 L-12,487 L-12,481 L-11,481 L-10,466 L-31,466 L-32,464 L-32,448 L-39,447 L-40,445 L-41,448 L-44,446 L-45,447 L-54,444 L-56,441 L-54,438 L-53,429 L-55,429 L-56,425 L-54,423 L-53,424 L-53,422 L-55,421 L-53,418 L-55,418 L-54,415 L-55,413 L-53,413 L-54,408 L-56,407 L-55,403 L-73,403 L-74,398 L-74,391 L-73,388 L-75,387 L-73,387 L-74,377 L-76,375 L-73,374 L-73,368 L-77,367 L-74,363 L-74,353 L-76,353 L-75,349 L-74,345 L-76,342 L-74,341 L-74,330 L-74,327 L-76,324 L-73,323 L-76,318 L-75,317 L-76,314 L-74,313 L-75,310 L-75,307 L-74,304 L-74,298 L-75,296 L-73,296 L-73,292 L-77,291 L-74,289 L-75,286 L-76,282 L-74,281 L-74,278 L-76,277 L-76,275 L-74,273 L-76,269 L-76,264 L-76,261 L-75,259 L-74,257 L-75,253 L-76,249 L-75,246 L-74,240 L-76,239 L-74,237 L-76,236 L-75,234 L-74,233 L-76,232 L-75,230 L-74,229 L-74,219 L-73,217 L-75,216 L-75,214 L-75,211 L-73,211 L-73,208 L-75,207 L-74,203 L-74,192 L-72,188 L-72,190 L-55,189 L-54,182 L-55,182 L-55,177 L-55,176 L-56,174 L-54,171 L-55,167 L-56,163 L-54,159 L-55,158 L-55,153 L-52,152 L-68,152 L-73,151 L-76,151 L-75,147 L-74,146 L-74,129 L-96,128 L-96,45 L-94,43 L-92,44 L-74,44 L-74,24 L-72,23 L-59,23 L-55,22 L-54,18 L-53,16 L-53,8 L-56,5 L-55,2 L-51,1 L-35,1 Z M-13,1 Z M-10,1 Z M-53,20 Z M86,65 Z M357,65 Z M-67,150 Z M-64,150 Z M-60,150 L-60,151 L-55,151 L-55,150 Z M-54,150 Z M-54,155 L-53,157 Z M-74,213 Z M-74,238 Z M-74,260 Z M-75,265 L-74,267 Z M-75,268 Z M-74,283 Z M-75,366 Z M-54,404 L-53,406 Z M-54,442 Z M10,590 L10,612 L11,612 L11,590 Z M432,613 Z M-55,695 Z M-53,695 Z M390,708 L391,712 Z M434,716 Z M-176,737 L-176,738 L-136,738 L-136,737 Z M453,737 L454,739 L455,737 Z M456,737 Z M459,737 Z M-179,743 Z M-219,776 L-218,779 Z M-223,779 L-219,780 Z M-242,819 Z M257,41 L259,42 Z M114,42 Z M138,42 Z M217,42 Z M256,42 Z M136,43 Z M312,43 Z M112,56 Z M113,57 Z M-70,151 Z M-56,176 Z M-76,214 Z M-76,348 Z M-55,444 Z M418,715 Z M-179,749 Z M518,756 Z M553,757 L555,758 Z M622,967 Z " transform="translate(320,40)" style="fill: #678E9F;"/><path d="M0,0 L230,0 L230,21 L252,21 L252,42 L294,42 L294,105 L315,105 L315,189 L251,189 L251,210 L315,210 L315,273 L336,273 L336,503 L335,504 L315,504 L316,545 L336,546 L333,550 L328,550 L325,549 L324,548 L321,550 L316,549 L316,568 L295,568 L294,571 L294,567 L273,567 L273,588 L85,588 L85,567 L43,567 L43,589 L85,589 L85,609 L170,609 L170,651 L169,651 L169,631 L148,631 L148,651 L127,651 L127,673 L106,673 L106,693 L85,693 L85,714 L64,714 L64,693 L43,693 L43,673 L22,673 L22,651 L0,651 L0,630 L-41,630 L-41,609 L-63,609 L-63,588 L-83,588 L-83,482 L-63,482 L-63,273 L-83,273 L-83,252 L-146,252 L-146,272 L-147,273 L-168,273 L-168,125 L-147,125 L-147,105 L-126,105 L-126,84 L-104,84 L-104,63 L-83,63 L-83,42 L-63,42 L-63,21 L0,21 Z M316,547 Z " transform="translate(436,106)" style="fill: #AD552D;"/><path d="M0,0 L42,0 L42,21 L230,21 L230,0 L251,0 L252,10 L253,18 L254,22 L241,23 L231,23 L232,32 L233,36 L232,42 L231,43 L214,44 L212,47 L211,46 L211,58 L214,61 L216,61 L216,63 L226,62 L232,63 L231,71 L233,71 L232,73 L233,74 L233,83 L235,83 L236,81 L236,84 L244,82 L249,83 L270,83 L273,84 L274,82 L282,83 L284,82 L287,83 L288,81 L288,84 L291,83 L296,85 L295,88 L294,88 L294,102 L320,103 L320,104 L354,104 L357,107 L356,126 L358,126 L359,124 L373,125 L394,125 L398,127 L397,147 L401,145 L409,143 L409,146 L417,146 L417,143 L419,143 L420,159 L419,166 L421,167 L431,168 L432,166 L437,167 L440,167 L441,178 L441,229 L442,231 L459,231 L462,232 L463,256 L463,313 L464,315 L462,315 L463,336 L462,350 L465,351 L-1,351 L-1,169 L-41,169 L-42,149 L-36,148 L-43,147 L-43,126 L-22,126 L-20,128 L-2,128 L-1,126 L-21,126 L-21,106 L0,106 L0,126 L21,126 L21,147 L42,147 L42,126 L63,126 L63,106 L84,106 L84,84 L105,84 L105,64 L126,64 L127,42 L42,42 L42,22 L0,22 Z M231,75 L232,79 Z M275,83 Z M294,104 L295,106 L296,104 Z M297,104 Z M300,104 Z M259,82 Z M359,123 Z M394,124 L396,125 Z M463,334 Z " transform="translate(479,673)" style="fill: #6890A0;"/><path d="M0,0 L272,0 L272,21 L293,21 L293,105 L229,105 L229,126 L293,126 L293,189 L314,189 L314,294 L293,294 L293,209 L272,209 L272,272 L84,272 L84,294 L63,294 L63,315 L21,315 L21,294 L0,294 L0,272 L-22,272 L-22,231 L-43,231 L-43,126 L-22,126 L-22,21 L0,21 Z " transform="translate(458,190)" style="fill: #F3B46D;"/><path d="M0,0 Z M-35,0 L-25,0 L-25,1 L-20,1 L-20,0 L-15,0 L-13,0 L-8,0 L-7,1 L19,1 L48,2 L49,0 L49,2 L51,2 L52,0 L53,1 L54,23 L75,24 L75,41 L74,48 L76,49 L75,53 L74,66 L76,66 L77,63 L81,65 L81,64 L88,64 L88,66 L99,66 L100,64 L100,66 L115,66 L114,60 L115,46 L113,46 L112,43 L114,43 L114,45 L117,44 L119,45 L120,43 L120,45 L131,44 L146,44 L147,42 L152,44 L175,44 L178,44 L199,44 L202,44 L213,44 L216,45 L217,43 L217,45 L226,44 L238,44 L242,45 L243,43 L246,44 L258,44 L260,42 L260,44 L327,44 L330,45 L331,43 L331,45 L336,44 L338,45 L339,42 L339,45 L342,44 L344,45 L345,43 L350,46 L350,48 L348,48 L347,65 L358,64 L363,65 L367,64 L368,65 L369,77 L368,86 L409,85 L411,87 L411,104 L414,105 L411,106 L432,107 L432,168 L439,168 L440,170 L433,170 L432,171 L449,170 L452,171 L453,335 L457,337 L453,337 L456,338 L471,338 L473,337 L473,570 L472,571 L464,571 L464,573 L460,572 L459,574 L455,573 L457,572 L452,570 L452,612 L432,612 L431,611 L431,570 L451,569 L452,339 L431,339 L431,276 L367,276 L367,255 L431,255 L431,171 L410,171 L410,108 L368,108 L368,87 L346,87 L346,66 L116,66 L116,87 L53,87 L53,108 L33,108 L33,129 L12,129 L12,150 L-10,150 L-10,171 L-31,171 L-31,191 L-52,191 L-52,339 L-31,338 L-30,318 L33,318 L33,339 L53,339 L53,548 L33,548 L33,654 L11,654 L11,633 L-9,633 L-9,613 L12,613 L12,486 L-3,488 L-9,487 L-12,487 L-12,481 L-11,481 L-10,466 L-31,466 L-32,464 L-32,448 L-39,447 L-40,445 L-41,448 L-44,446 L-45,447 L-54,444 L-56,441 L-54,438 L-53,429 L-55,429 L-56,425 L-54,423 L-53,424 L-53,422 L-55,421 L-53,418 L-55,418 L-54,415 L-55,413 L-53,413 L-54,408 L-56,407 L-55,403 L-73,403 L-74,398 L-74,391 L-73,388 L-75,387 L-73,387 L-74,377 L-76,375 L-73,374 L-73,368 L-77,367 L-74,363 L-74,353 L-76,353 L-75,349 L-74,345 L-76,342 L-74,341 L-74,330 L-74,327 L-76,324 L-73,323 L-76,318 L-75,317 L-76,314 L-74,313 L-75,310 L-75,307 L-74,304 L-74,298 L-75,296 L-73,296 L-73,292 L-77,291 L-74,289 L-75,286 L-76,282 L-74,281 L-74,278 L-76,277 L-76,275 L-74,273 L-76,269 L-76,264 L-76,261 L-75,259 L-74,257 L-75,253 L-76,249 L-75,246 L-74,240 L-76,239 L-74,237 L-76,236 L-75,234 L-74,233 L-76,232 L-75,230 L-74,229 L-74,219 L-73,217 L-75,216 L-75,214 L-75,211 L-73,211 L-73,208 L-75,207 L-74,203 L-74,192 L-72,188 L-72,190 L-55,189 L-54,182 L-55,182 L-55,177 L-55,176 L-56,174 L-54,171 L-55,167 L-56,163 L-54,159 L-55,158 L-55,153 L-52,152 L-68,152 L-73,151 L-76,151 L-75,147 L-74,146 L-74,129 L-96,128 L-96,45 L-94,43 L-92,44 L-74,44 L-74,24 L-72,23 L-59,23 L-55,22 L-54,18 L-53,16 L-53,8 L-56,5 L-55,2 L-51,1 L-35,1 Z M-13,1 Z M-10,1 Z M-53,20 Z M86,65 Z M357,65 Z M-67,150 Z M-64,150 Z M-60,150 L-60,151 L-55,151 L-55,150 Z M-54,150 Z M-54,155 L-53,157 Z M-74,213 Z M-74,238 Z M-74,260 Z M-75,265 L-74,267 Z M-75,268 Z M-74,283 Z M-75,366 Z M-54,404 L-53,406 Z M-54,442 Z M257,41 L259,42 Z M114,42 Z M138,42 Z M217,42 Z M256,42 Z M136,43 Z M312,43 Z M112,56 Z M113,57 Z M-70,151 Z M-56,176 Z M-76,214 Z M-76,348 Z M-55,444 Z " transform="translate(320,40)" style="fill: #2D2F37;"/><path d="M0,0 L19,0 L19,106 L39,107 L40,147 L62,148 L62,168 L84,168 L84,189 L126,189 L126,168 L147,168 L147,146 L335,146 L335,83 L356,83 L356,168 L377,168 L377,293 L376,294 L356,294 L355,335 L334,335 L334,356 L212,356 L212,336 L168,336 L167,315 L125,315 L125,294 L84,294 L84,272 L63,272 L63,253 L40,253 L41,210 L21,210 L20,209 L20,146 L0,146 Z " transform="translate(395,316)" style="fill: #D57027;"/><path d="M0,0 L4,0 L4,127 L-17,127 L-17,147 L3,147 L3,168 L45,168 L45,189 L67,189 L67,210 L108,210 L108,231 L130,231 L130,253 L66,253 L66,273 L45,273 L45,293 L26,293 L25,294 L45,294 L45,316 L25,316 L24,295 L3,294 L3,273 L-18,273 L-18,231 L-20,231 L-20,273 L-102,273 L-102,294 L-143,294 L-143,316 L-185,316 L-185,337 L-164,337 L-164,357 L-142,357 L-142,397 L-121,397 L-121,498 L-272,498 L-271,496 L-269,497 L-270,491 L-270,447 L-272,446 L-272,436 L-270,436 L-270,336 L-269,334 L-265,333 L-252,334 L-252,332 L-249,331 L-248,294 L-232,294 L-231,290 L-226,289 L-228,277 L-229,275 L-227,275 L-227,273 L-224,272 L-185,273 L-186,264 L-185,259 L-188,258 L-188,256 L-185,256 L-186,250 L-144,249 L-144,231 L-138,229 L-137,230 L-135,228 L-131,229 L-130,230 L-123,230 L-121,228 L-121,231 L-112,230 L-104,230 L-104,210 L-80,209 L-64,209 L-61,204 L-61,202 L-63,201 L-61,201 L-61,189 L-57,188 L-46,188 L-42,186 L-40,186 L-40,167 L-41,165 L-40,156 L-40,147 L-38,146 L-18,147 L-18,126 L-4,125 L0,122 L0,66 L2,65 L2,24 L1,24 Z M2,104 L2,126 L3,126 L3,104 Z M-63,209 Z M-61,209 Z M-184,251 L-184,252 L-144,252 L-144,251 Z M-187,257 Z M-227,290 L-226,293 Z M-231,293 L-227,294 Z M-250,333 Z M-187,263 Z " transform="translate(328,526)" style="fill: #537B9C;"/><path d="M0,0 L230,0 L230,21 L252,21 L252,42 L294,42 L294,84 L22,84 L22,105 L-42,105 L-42,84 L-83,84 L-83,42 L-63,42 L-63,21 L0,21 Z " transform="translate(436,106)" style="fill: #D57126;"/><path d="M0,0 L42,0 L42,21 L230,21 L230,0 L251,0 L252,10 L253,18 L254,22 L241,23 L231,23 L232,32 L233,36 L232,42 L231,43 L214,44 L212,47 L211,46 L211,58 L214,61 L216,61 L216,63 L226,62 L232,63 L231,71 L233,71 L232,73 L233,74 L233,83 L235,83 L236,81 L236,84 L244,82 L249,83 L270,83 L273,84 L274,82 L282,83 L284,82 L287,83 L288,81 L288,84 L291,83 L296,85 L295,88 L294,88 L294,102 L320,103 L320,104 L354,104 L357,107 L356,126 L293,126 L293,106 L231,106 L231,84 L189,84 L189,126 L168,126 L168,169 L147,169 L147,190 L104,190 L104,169 L83,169 L83,126 L63,126 L63,106 L84,106 L84,84 L105,84 L105,64 L126,64 L127,42 L42,42 L42,22 L0,22 Z M231,75 L232,79 Z M275,83 Z M294,104 L295,106 L296,104 Z M297,104 Z M300,104 Z M259,82 Z " transform="translate(479,673)" style="fill: #313138;"/><path d="M0,0 L20,0 L20,22 L41,22 L41,43 L62,43 L62,65 L83,65 L83,85 L126,85 L126,107 L168,107 L168,127 L253,127 L253,169 L252,169 L252,149 L231,149 L231,169 L210,169 L210,191 L189,191 L189,211 L168,211 L168,232 L147,232 L147,211 L126,211 L126,191 L105,191 L105,169 L83,169 L83,148 L42,148 L42,127 L20,127 L20,106 L0,106 Z " transform="translate(353,588)" style="fill: #E7924A;"/><path d="M0,0 L2,1 Z M-143,1 Z M-119,1 Z M-40,1 Z M-1,1 Z M-111,1 L-105,3 L-82,3 L-79,3 L-58,3 L-55,3 L-44,3 L-41,4 L-40,2 L-40,4 L-31,3 L-19,3 L-15,4 L-14,2 L-11,3 L1,3 L3,1 L3,3 L70,3 L73,4 L74,2 L74,4 L79,3 L81,4 L82,1 L82,4 L85,3 L87,4 L88,2 L93,5 L93,7 L91,7 L90,24 L101,23 L106,24 L110,23 L111,24 L112,36 L111,45 L152,44 L154,46 L154,63 L157,64 L154,65 L175,66 L175,127 L182,127 L183,129 L176,129 L175,130 L192,129 L195,130 L196,294 L200,296 L196,296 L199,297 L214,297 L216,296 L216,529 L215,530 L207,530 L207,532 L203,531 L202,533 L198,532 L200,531 L195,529 L195,571 L175,571 L174,570 L174,529 L194,528 L195,298 L174,298 L174,235 L110,235 L110,214 L174,214 L174,130 L153,130 L153,67 L111,67 L111,46 L89,46 L89,25 L-141,25 L-141,46 L-182,45 L-182,44 L-142,44 L-142,27 L-157,27 L-155,25 L-142,25 L-143,19 L-142,5 L-144,5 L-145,2 L-143,2 L-143,4 L-140,3 L-138,4 L-137,2 L-137,4 L-126,3 L-111,3 Z M100,24 Z M-121,2 Z M55,2 Z M-145,15 Z M-144,16 Z " transform="translate(577,81)" style="fill: #111424;"/><path d="M0,0 L4,0 L4,127 L-17,127 L-17,147 L3,147 L3,168 L45,168 L45,189 L67,189 L67,210 L108,210 L108,231 L130,231 L130,253 L66,253 L66,273 L45,273 L45,293 L26,293 L25,294 L45,294 L45,316 L25,316 L24,295 L3,294 L3,273 L-18,273 L-18,231 L-39,231 L-39,211 L-60,211 L-60,231 L-102,231 L-102,253 L-141,253 L-142,250 L-144,231 L-138,229 L-137,230 L-135,228 L-131,229 L-130,230 L-123,230 L-121,228 L-121,231 L-112,230 L-104,230 L-104,210 L-80,209 L-64,209 L-61,204 L-61,202 L-63,201 L-61,201 L-61,189 L-57,188 L-46,188 L-42,186 L-40,186 L-40,167 L-41,165 L-40,156 L-40,147 L-38,146 L-18,147 L-18,126 L-4,125 L0,122 L0,66 L2,65 L2,24 L1,24 Z M2,104 L2,126 L3,126 L3,104 Z M-63,209 Z M-61,209 Z M-141,249 Z " transform="translate(328,526)" style="fill: #537A9A;"/><path d="M0,0 L105,0 L105,42 L84,42 L84,63 L63,63 L63,84 L42,84 L42,105 L22,105 L22,125 L21,126 L0,126 L0,84 L-21,84 L-21,21 L0,21 Z " transform="translate(268,64)" style="fill: #D77227;"/><path d="M0,0 L103,0 L103,97 L0,97 Z " transform="translate(648,927)" style="fill: #678E9E;"/><path d="M0,0 L41,0 L41,41 L21,41 L21,83 L-1,83 L-1,126 L-42,126 L-42,83 L-63,83 L-63,41 L-42,41 L-42,21 L0,21 Z " transform="translate(626,716)" style="fill: #537C9E;"/><path d="M0,0 L21,0 L21,20 L42,20 L42,41 L33,42 L41,43 L41,61 L22,62 L42,63 L42,245 L20,245 L20,63 L-20,63 L-21,43 L-15,42 L-22,41 L-22,20 L-1,20 L1,22 L19,22 L20,20 L0,20 Z " transform="translate(458,779)" style="fill: #2C2D34;"/><path d="M0,0 L2,1 Z M-143,1 Z M-119,1 Z M-40,1 Z M-1,1 Z M-111,1 L-105,3 L-82,3 L-79,3 L-58,3 L-55,3 L-44,3 L-41,4 L-40,2 L-40,4 L-31,3 L-19,3 L-15,4 L-14,2 L-11,3 L1,3 L3,1 L3,3 L70,3 L73,4 L74,2 L74,4 L79,3 L81,4 L82,1 L82,4 L85,3 L87,4 L88,2 L93,5 L93,7 L91,7 L90,24 L101,23 L106,24 L110,23 L111,24 L112,36 L111,45 L152,44 L154,46 L154,63 L157,64 L154,65 L175,66 L175,127 L182,127 L183,129 L174,129 L174,67 L111,67 L111,46 L89,46 L89,25 L-141,25 L-141,46 L-182,45 L-182,44 L-142,44 L-142,27 L-157,27 L-155,25 L-142,25 L-143,19 L-142,5 L-144,5 L-145,2 L-143,2 L-143,4 L-140,3 L-138,4 L-137,2 L-137,4 L-126,3 L-111,3 Z M100,24 Z M-121,2 Z M55,2 Z M-145,15 Z M-144,16 Z " transform="translate(577,81)" style="fill: #2E2F38;"/><path d="M0,0 L63,0 L63,126 L42,126 L42,105 L21,105 L21,83 L0,83 Z " transform="translate(289,379)" style="fill: #F2B36B;"/><path d="M0,0 L21,1 L21,18 L20,25 L22,26 L21,30 L20,43 L22,43 L23,40 L27,42 L27,41 L34,41 L34,43 L45,43 L46,41 L46,43 L48,44 L61,45 L61,62 L50,63 L50,64 L-1,64 L-1,85 L-21,85 L-21,106 L-42,106 L-42,127 L-64,128 L-65,147 L-86,147 L-86,166 L-104,166 L-104,128 L-85,128 L-84,106 L-64,106 L-64,85 L-43,85 L-43,64 L-22,64 L-22,43 L-1,43 L-1,1 Z M32,42 Z " transform="translate(374,63)" style="fill: #2F2F38;"/><path d="M0,0 L42,0 L42,20 L127,20 L127,41 L189,41 L190,61 L85,61 L85,41 L-19,41 L-19,21 L0,21 Z " transform="translate(373,128)" style="fill: #AC552D;"/><path d="M0,0 L146,0 L146,21 L21,21 L21,119 L0,119 Z " transform="translate(626,905)" style="fill: #2C2E35;"/><path d="M0,0 L22,0 L22,43 L1,43 L1,204 L-24,204 L-23,202 L-21,203 L-22,197 L-22,153 L-24,152 L-24,142 L-22,142 L-22,42 L-21,40 L-17,39 L-4,40 L-4,38 L-1,37 Z M-2,39 Z " transform="translate(80,820)" style="fill: #30333B;"/><path d="M0,0 L1,3 L9,3 L9,0 L11,0 L12,16 L11,23 L13,24 L23,25 L24,23 L29,24 L32,24 L33,35 L33,86 L34,88 L51,88 L54,89 L55,113 L55,170 L56,172 L54,172 L55,193 L54,207 L57,208 L32,208 L32,89 L11,89 L11,26 L-11,26 L-11,4 L-7,2 Z M55,191 Z " transform="translate(887,816)" style="fill: #2D2F37;"/><path d="M0,0 L1,0 L1,233 L0,234 L-8,234 L-8,236 L-12,235 L-13,237 L-17,236 L-15,235 L-16,233 L-14,232 L-18,231 L-18,1 L-1,1 Z " transform="translate(792,377)" style="fill: #2F3037;"/><path d="M0,0 L126,0 L126,21 L105,21 L105,42 L22,41 L22,21 L0,21 Z " transform="translate(584,526)" style="fill: #2D2D37;"/><path d="M0,0 L20,0 L20,20 L41,20 L41,41 L81,41 L81,60 L83,62 L62,62 L62,83 L42,83 L42,103 L41,104 L20,104 L20,62 L-1,62 Z " transform="translate(248,86)" style="fill: #AB552D;"/><path d="M0,0 L21,1 L21,85 L0,85 L0,65 L-21,65 L-21,85 L-63,85 L-63,107 L-102,107 L-103,104 L-105,85 L-99,83 L-98,84 L-96,82 L-92,83 L-91,84 L-84,84 L-82,82 L-82,85 L-73,84 L-65,84 L-65,64 L-41,63 L-25,63 L-22,58 L-22,56 L-24,55 L-22,55 L-22,43 L-18,42 L-7,42 L-3,40 L-1,40 L-1,21 L-2,19 L-1,10 L-1,1 Z M-24,63 Z M-22,63 Z M-102,103 Z " transform="translate(289,672)" style="fill: #2D2E35;"/><path d="M0,0 L41,0 L41,44 L61,44 L61,64 L-18,64 L-19,67 L-19,44 L-21,43 L-21,21 L0,21 Z " transform="translate(521,799)" style="fill: #537A9B;"/><path d="M0,0 L64,0 L64,20 L84,20 L84,41 L83,41 L83,22 L65,22 L65,41 L64,41 L63,20 L42,20 L42,41 L21,41 L21,63 L-21,63 L-21,41 L-41,41 L-41,20 L-40,20 L-40,40 L-21,40 L-21,20 L0,20 Z " transform="translate(394,779)" style="fill: #6891A2;"/><path d="M0,0 L21,0 L21,63 L1,64 L0,85 L-105,85 L-105,63 L0,63 Z " transform="translate(730,399)" style="fill: #303037;"/><path d="M0,0 L20,0 L20,1 L1,1 L1,21 L105,21 L105,63 L41,63 L41,42 L0,42 Z " transform="translate(353,148)" style="fill: #D57126;"/><path d="M0,0 L1,0 L1,21 L62,21 L62,0 L63,0 L63,41 L41,41 L41,84 L0,84 L0,41 L-21,41 L-21,21 L0,21 Z " transform="translate(584,758)" style="fill: #6A92A2;"/><path d="M0,0 L1,0 L1,41 L20,41 L20,3 L21,3 L21,42 L0,42 Z M-105,22 L-84,22 L-84,42 L-63,42 L-63,85 L-22,85 L-22,42 L0,42 L0,85 L-21,85 L-21,106 L-64,106 L-64,85 L-85,85 L-85,42 L-105,42 Z " transform="translate(647,757)" style="fill: #19131A;"/><path d="M0,0 L21,0 L21,20 L42,20 L42,41 L33,42 L41,43 L41,61 L22,62 L21,245 L20,245 L20,63 L-20,63 L-21,43 L-15,42 L-22,41 L-22,20 L-1,20 L1,22 L19,22 L20,20 L0,20 Z " transform="translate(458,779)" style="fill: #517796;"/><path d="M0,0 L2,2 L2,168 L-16,168 L-16,2 L0,2 Z " transform="translate(768,210)" style="fill: #2F3139;"/><path d="M0,0 L125,0 L125,21 L0,21 Z " transform="translate(584,505)" style="fill: #EDAC66;"/><path d="M0,0 L7,1 L16,1 L12,3 L20,4 L21,65 L41,66 L41,105 L25,106 L24,108 L19,108 L20,104 L21,103 L21,86 L-1,85 L-1,2 Z " transform="translate(225,83)" style="fill: #313138;"/><path d="M0,0 Z M-35,0 L-25,0 L-25,1 L-20,1 L-20,0 L-15,0 L-13,0 L-8,0 L-7,1 L19,1 L48,2 L49,0 L49,2 L51,2 L52,0 L53,1 L53,24 L-48,24 L-53,20 L-53,8 L-56,5 L-55,2 L-51,1 L-35,1 Z M-13,1 Z M-10,1 Z " transform="translate(320,40)" style="fill: #313138;"/><path d="M0,0 L1,0 L1,20 L62,20 L62,83 L42,83 L42,42 L1,42 L1,82 L0,82 Z " transform="translate(289,379)" style="fill: #DF803C;"/><path d="M0,0 L22,0 L22,99 L0,99 Z " transform="translate(185,925)" style="fill: #2F323A;"/><path d="M0,0 L21,0 L21,99 L0,99 Z " transform="translate(814,925)" style="fill: #30323A;"/><path d="M0,0 L21,0 L21,97 L0,97 Z " transform="translate(751,927)" style="fill: #51799A;"/><path d="M0,0 L105,0 L105,19 L0,19 Z " transform="translate(625,442)" style="fill: #DF8039;"/><path d="M0,0 L1,3 L9,3 L9,0 L11,0 L12,16 L11,23 L13,24 L23,25 L24,23 L29,24 L32,24 L33,35 L33,84 L29,89 L11,89 L11,26 L-11,26 L-11,4 L-7,2 Z " transform="translate(887,816)" style="fill: #2B2E35;"/><path d="M0,0 L1,0 L0,25 L-42,25 L-42,47 L-81,47 L-82,44 L-84,25 L-78,23 L-77,24 L-75,22 L-71,23 L-70,24 L-63,24 L-61,22 L-61,25 L-52,24 L-44,24 L-44,4 L-20,3 L-5,3 L-1,4 Z M-81,43 Z " transform="translate(268,732)" style="fill: #2B2C33;"/><path d="M0,0 L22,0 L22,42 L43,42 L43,63 L63,63 L63,85 L43,85 L42,64 L21,63 L21,42 L0,42 Z " transform="translate(310,757)" style="fill: #2C2C34;"/><path d="M0,0 L86,0 L86,21 L0,21 Z " transform="translate(520,295)" style="fill: #B35B2F;"/><path d="M0,0 L22,0 L22,43 L1,43 L1,204 L-1,204 L-1,44 L-19,44 L-19,191 L-20,196 L-21,196 L-22,153 L-24,152 L-24,142 L-22,142 L-22,42 L-21,40 L-17,39 L-4,40 L-4,38 L-1,37 Z M-2,39 Z " transform="translate(80,820)" style="fill: #2B2D34;"/><path d="M0,0 L6,1 L12,0 L17,1 L21,0 L22,1 L23,13 L22,22 L63,21 L65,23 L65,40 L68,41 L65,42 L86,43 L86,104 L93,104 L94,106 L85,106 L85,44 L22,44 L22,23 L0,23 Z M11,1 Z " transform="translate(666,104)" style="fill: #36353B;"/><path d="M0,0 L1,0 L1,19 L61,19 L63,20 L126,21 L125,41 L62,41 L62,21 L0,21 Z " transform="translate(710,758)" style="fill: #30323A;"/><path d="M0,0 L42,0 L42,21 L229,21 L229,23 L43,23 L43,41 L127,41 L127,42 L42,42 L42,22 L0,22 Z " transform="translate(479,673)" style="fill: #262936;"/><path d="M0,0 L2,1 L2,3 L4,3 L4,12 L6,12 L7,10 L7,13 L15,11 L20,12 L41,12 L44,13 L45,11 L53,12 L55,11 L58,12 L59,10 L59,13 L62,12 L67,14 L66,17 L65,17 L65,31 L91,32 L91,33 L125,33 L127,35 L66,35 L63,34 L3,33 L2,12 L0,12 Z M2,4 L3,8 Z M46,12 Z M68,33 Z M71,33 Z M30,11 Z " transform="translate(708,744)" style="fill: #34363E;"/><path d="M0,0 L22,0 L22,21 L63,21 L63,42 L21,42 L21,22 L0,22 Z " transform="translate(373,715)" style="fill: #313239;"/><path d="M0,0 L21,0 L21,21 L64,21 L64,42 L21,42 L21,22 L0,22 Z " transform="translate(415,631)" style="fill: #323138;"/><path d="M0,0 L64,0 L64,21 L0,21 Z " transform="translate(687,295)" style="fill: #B65D2F;"/><path d="M0,0 L21,0 L21,63 L0,63 Z " transform="translate(415,253)" style="fill: #D26F25;"/><path d="M0,0 L63,0 L62,21 L-1,21 Z " transform="translate(290,358)" style="fill: #2F3038;"/><path d="M0,0 L22,0 L22,59 L0,59 Z " transform="translate(562,340)" style="fill: #2B2B34;"/><path d="M0,0 L20,0 L20,59 L0,59 Z " transform="translate(710,340)" style="fill: #2A2B34;"/><path d="M0,0 L18,1 L18,61 L0,61 Z " transform="translate(731,400)" style="fill: #303139;"/><path d="M0,0 L18,0 L19,60 L0,60 Z " transform="translate(731,149)" style="fill: #313238;"/><path d="M0,0 L18,0 L18,57 L0,57 Z " transform="translate(208,967)" style="fill: #52799B;"/><path d="M0,0 L60,0 L60,17 L0,17 Z " transform="translate(291,381)" style="fill: #F1AE68;"/><path d="M0,0 L1,0 L2,42 L22,43 L19,47 L14,47 L11,46 L10,45 L7,47 L2,46 L2,65 L-19,65 L-20,68 L-20,64 L-41,64 L-41,85 L-229,85 L-229,64 L-228,64 L-228,84 L-42,84 L-42,64 L-144,64 L-144,43 L-143,43 L-143,63 L-21,63 L-21,42 L0,42 Z M2,44 Z " transform="translate(750,609)" style="fill: #F4802C;"/><path d="M0,0 L22,0 L23,1 L23,43 L2,43 L0,42 Z " transform="translate(835,883)" style="fill: #51789A;"/><path d="M0,0 L21,0 L22,21 L42,22 L42,43 L21,43 L21,22 L0,22 Z " transform="translate(373,588)" style="fill: #242535;"/><path d="M0,0 L22,0 L22,21 L42,21 L42,43 L22,43 L21,22 L0,21 Z " transform="translate(331,799)" style="fill: #27242B;"/><path d="M0,0 Z M-1,1 L14,2 L35,2 L39,4 L38,24 L-3,24 L-3,3 L-1,3 Z M35,1 L37,2 Z " transform="translate(838,796)" style="fill: #2E3037;"/><path d="M0,0 L42,0 L42,21 L0,21 Z " transform="translate(373,842)" style="fill: #2A2A32;"/><path d="M0,0 L42,0 L42,22 L1,22 Z " transform="translate(668,757)" style="fill: #537C9D;"/><path d="M0,0 L42,0 L42,20 L0,20 L-1,11 L0,6 L-3,5 L-3,3 L0,3 Z M-2,4 Z M-2,10 Z " transform="translate(143,779)" style="fill: #2B2C33;"/><path d="M0,0 L40,1 L40,22 L0,22 L-1,1 Z " transform="translate(103,798)" style="fill: #2E3139;"/><path d="M0,0 L2,2 L4,1 L4,4 L79,4 L79,5 L3,6 L3,27 L-18,27 L-18,90 L3,90 L3,132 L-16,132 L-15,130 L1,130 L1,91 L-19,91 L-20,90 L-20,29 L-29,29 L-28,27 L-19,26 L-19,6 L-17,5 L-4,5 L0,4 Z " transform="translate(265,58)" style="fill: #2C2C39;"/><path d="M0,0 L20,0 L20,42 L0,42 Z " transform="translate(710,148)" style="fill: #AE552D;"/><path d="M0,0 L20,0 L19,41 L0,41 Z " transform="translate(648,757)" style="fill: #2F3038;"/><path d="M0,0 L20,0 L20,39 L0,39 Z " transform="translate(751,569)" style="fill: #AC552E;"/><path d="M0,0 L19,0 L19,41 L0,41 Z " transform="translate(752,421)" style="fill: #E2843E;"/><path d="M0,0 L19,0 L19,40 L0,40 Z " transform="translate(563,800)" style="fill: #2F3139;"/><path d="M0,0 L5,0 L6,2 L13,2 L15,0 L15,3 L17,4 L32,5 L32,23 L-5,23 L-6,22 L-8,3 L-2,1 L-1,2 Z M-5,21 Z " transform="translate(192,754)" style="fill: #2E3139;"/><path d="M0,0 L39,0 L39,19 L0,19 Z " transform="translate(585,843)" style="fill: #2F313A;"/><path d="M0,0 L18,0 L18,40 L0,40 Z " transform="translate(627,800)" style="fill: #30323A;"/><path d="M0,0 L17,0 L17,40 L-1,40 L-1,13 Z " transform="translate(753,611)" style="fill: #313139;"/><path d="M0,0 L22,0 L22,21 L63,21 L63,42 L21,42 L21,22 L0,22 Z M23,23 L23,41 L62,41 L62,23 Z " transform="translate(373,715)" style="fill: #2A1D27;"/><path d="M0,0 L21,0 L21,21 L64,21 L64,42 L21,42 L21,22 L0,22 Z M23,23 L23,41 L62,41 L62,23 Z " transform="translate(415,631)" style="fill: #303138;"/><path d="M0,0 L21,0 L22,1 L22,161 L20,161 L20,1 L2,1 L2,148 L1,153 L0,153 L-1,110 L-3,109 L-3,99 L-1,99 Z " transform="translate(59,863)" style="fill: #1B161A;"/><path d="M0,0 L21,0 L21,63 L1,64 L0,85 L-103,85 L-103,84 L-1,84 L-1,65 L-105,65 L-105,63 L0,63 Z M1,1 L1,62 L19,62 L19,2 Z " transform="translate(730,399)" style="fill: #1C1530;"/><path d="M0,0 L1,3 L9,3 L9,0 L11,0 L12,16 L11,23 L13,24 L23,25 L24,23 L29,24 L32,24 L32,26 L-11,26 L-11,4 L-7,2 Z " transform="translate(887,816)" style="fill: #2F313A;"/><path d="M0,0 L22,0 L22,22 L0,22 Z " transform="translate(436,757)" style="fill: #313138;"/><path d="M0,0 L21,0 L21,22 L0,22 Z " transform="translate(521,989)" style="fill: #2A2B32;"/><path d="M0,0 L21,0 L21,22 L0,22 Z " transform="translate(521,883)" style="fill: #2A2A32;"/><path d="M0,0 L21,0 L21,22 L0,22 Z " transform="translate(500,820)" style="fill: #2A2830;"/><path d="M0,0 L21,0 L21,22 L0,22 Z " transform="translate(415,820)" style="fill: #303139;"/><path d="M0,0 L21,0 L21,22 L0,22 Z " transform="translate(563,757)" style="fill: #302F38;"/><path d="M0,0 L22,0 L22,21 L0,21 Z " transform="translate(562,505)" style="fill: #2A2A36;"/><path d="M0,0 L21,0 L22,2 L22,21 L0,21 Z " transform="translate(436,799)" style="fill: #2B2930;"/><path d="M0,0 L21,0 L21,21 L0,21 Z " transform="translate(521,799)" style="fill: #2A2932;"/><path d="M0,0 L21,0 L21,21 L0,21 Z " transform="translate(479,799)" style="fill: #2A2832;"/><path d="M0,0 L21,0 L21,21 L0,21 Z " transform="translate(730,652)" style="fill: #292B35;"/><path d="M0,0 L21,0 L21,21 L0,21 Z " transform="translate(499,316)" style="fill: #AB5129;"/><path d="M0,0 L22,0 L22,99 L20,99 L20,2 L2,2 L2,99 L0,99 Z " transform="translate(185,925)" style="fill: #252229;"/><path d="M0,0 L6,1 L12,0 L17,1 L21,0 L22,1 L23,13 L22,21 L2,21 L0,23 Z M11,1 Z " transform="translate(666,104)" style="fill: #333239;"/><path d="M0,0 L21,0 L21,20 L0,20 Z " transform="translate(458,779)" style="fill: #292833;"/><path d="M0,0 L21,0 L21,20 L0,20 Z " transform="translate(584,737)" style="fill: #2A2A32;"/><path d="M0,0 L20,0 L20,21 L0,21 Z " transform="translate(353,694)" style="fill: #292832;"/><path d="M0,0 L20,0 L20,21 L0,21 Z " transform="translate(710,505)" style="fill: #282836;"/><path d="M0,0 L1,0 L1,19 L61,19 L63,20 L126,21 L125,41 L62,41 L62,21 L0,21 Z M64,23 L64,40 L123,40 L123,23 Z " transform="translate(710,758)" style="fill: #1A161D;"/><path d="M0,0 L20,0 L20,20 L0,20 Z " transform="translate(730,631)" style="fill: #AC552E;"/><path d="M0,0 L19,0 L19,20 L0,20 Z " transform="translate(752,464)" style="fill: #F0AC66;"/><path d="M0,0 L1,0 L3,20 L41,22 L41,23 L3,23 L3,65 L-19,65 L-19,225 L-20,225 L-20,64 L1,64 L0,21 L-5,21 L-4,17 L1,16 L-1,4 L-2,2 L0,2 Z M0,17 L1,20 Z " transform="translate(101,799)" style="fill: #6CA9D4;"/><path d="M0,0 L1,0 L1,41 L20,41 L20,3 L21,3 L21,42 L0,42 Z M-22,42 L0,42 L0,85 L-21,85 L-21,106 L-22,106 Z M-20,43 L-20,83 L-2,83 L-2,43 Z " transform="translate(647,757)" style="fill: #1E181E;"/><path d="M0,0 L18,0 L18,19 L0,19 Z " transform="translate(354,821)" style="fill: #30323A;"/><path d="M0,0 L18,0 L18,19 L0,19 Z " transform="translate(396,611)" style="fill: #323037;"/><path d="M0,0 L17,0 L18,3 L20,4 L20,11 L21,16 L22,20 L19,19 L19,17 L0,17 Z " transform="translate(711,675)" style="fill: #343339;"/><path d="M0,0 L18,0 L18,19 L0,18 Z " transform="translate(375,717)" style="fill: #313239;"/><path d="M0,0 L125,1 L125,2 L1,2 L1,100 L-1,100 L-1,1 Z " transform="translate(646,924)" style="fill: #2A2D36;"/><path d="M0,0 L18,0 L18,18 L0,18 Z " transform="translate(543,780)" style="fill: #313239;"/><path d="M0,0 L85,0 L85,21 L0,21 L1,19 L83,20 L83,2 L1,2 L1,17 L0,17 Z " transform="translate(521,295)" style="fill: #A23E1B;"/><path d="M0,0 Z M24,0 Z M32,0 L38,2 L61,2 L63,3 L82,4 L82,5 L2,5 L2,45 L-39,44 L-39,43 L1,43 L1,26 L-14,26 L-12,24 L1,24 L0,18 L1,4 L-1,4 L-2,1 L0,1 L0,3 L3,2 L5,3 L6,1 L6,3 L17,2 L32,2 Z M22,1 Z M-2,14 Z M-1,15 Z " transform="translate(434,82)" style="fill: #2E3138;"/><path d="M0,0 L19,0 L19,21 L62,21 L62,42 L19,42 L19,22 L-2,22 L-2,1 L-1,1 L-1,20 L18,20 L17,2 L0,1 Z M21,23 L21,41 L60,41 L60,23 Z " transform="translate(417,631)" style="fill: #141A32;"/><path d="M0,0 L1,0 L1,105 L22,105 L22,146 L44,146 L44,168 L43,168 L43,148 L21,148 L20,147 L20,107 L3,107 L0,106 Z " transform="translate(414,316)" style="fill: #C35510;"/><path d="M0,0 L38,0 L38,1 L19,1 L19,39 L37,39 L37,20 L58,20 L58,1 L59,1 L59,21 L38,21 L38,41 L17,41 L17,39 L14,38 L15,36 L14,27 L14,26 L13,24 L15,21 L14,17 L13,13 L15,9 L14,8 L14,3 L17,2 L1,2 Z M15,5 L16,7 Z M-1,1 Z M13,26 Z " transform="translate(251,190)" style="fill: #383E4C;"/><path d="M0,0 L1,0 L1,21 L40,21 L40,0 L41,0 L41,21 L104,21 L104,40 L103,40 L103,22 L2,22 L2,43 L-20,43 L-20,83 L-21,83 L-21,41 L0,41 Z " transform="translate(668,758)" style="fill: #83B8CC;"/><path d="M0,0 L1,0 L1,64 L22,64 L22,106 L3,106 L4,104 L20,104 L20,65 L0,65 L-1,64 L-1,3 L-10,3 L-9,1 Z " transform="translate(246,84)" style="fill: #122537;"/><path d="M0,0 L3,0 L4,24 L4,81 L5,83 L3,83 L4,104 L3,118 L6,119 L1,119 Z M4,102 Z " transform="translate(938,905)" style="fill: #181A20;"/><path d="M0,0 L21,0 L21,99 L20,99 L20,2 L2,2 L2,98 L1,98 Z " transform="translate(814,925)" style="fill: #130B0F;"/><path d="M0,0 L1,0 L1,22 L0,22 Z M-21,21 L0,22 L0,23 L-20,23 L-20,43 L-21,44 L-40,44 L-40,63 L-41,64 L-126,64 L-126,63 L-42,63 L-42,42 L-21,42 Z " transform="translate(731,505)" style="fill: #F69629;"/><path d="M0,0 L1,0 L1,147 L0,152 L-1,152 L-2,109 L-4,108 L-4,98 L-2,98 L-1,93 Z " transform="translate(60,864)" style="fill: #13161E;"/><path d="M0,0 L63,0 L62,21 L-1,21 Z M1,2 L1,20 L61,20 L61,2 Z " transform="translate(290,358)" style="fill: #071125;"/><path d="M0,0 L63,0 L63,2 L2,2 L2,20 L62,20 L62,21 L0,21 Z " transform="translate(687,295)" style="fill: #A4411C;"/><path d="M0,0 L1,0 L1,19 L62,19 L64,21 L64,27 L63,27 L63,22 L22,22 L22,40 L61,40 L61,41 L21,42 L21,21 L0,21 Z " transform="translate(667,106)" style="fill: #13182F;"/><path d="M0,0 L63,0 L62,20 L-1,20 L-1,3 L0,3 L0,19 L60,19 L60,2 L0,1 Z " transform="translate(773,779)" style="fill: #0A0407;"/><path d="M0,0 L2,1 Z M-40,1 Z M-1,1 Z M2,1 L3,3 L13,3 L14,4 L23,5 L23,6 L-54,6 L-54,4 L-45,3 L-41,4 L-40,2 L-40,4 L-31,3 L-19,3 L-15,4 L-14,2 L-11,3 L1,3 Z " transform="translate(577,81)" style="fill: #1F262E;"/><path d="M0,0 L34,0 L34,21 L-6,21 L-6,20 L33,20 L33,3 L-2,3 Z " transform="translate(109,799)" style="fill: #1E1A1F;"/><path d="M0,0 L42,0 L41,19 L40,19 L40,2 L1,2 L1,20 L41,20 L41,21 L0,22 Z " transform="translate(479,673)" style="fill: #141931;"/><path d="M0,0 L13,1 L13,23 L-26,23 L-27,21 L11,21 L11,3 L-12,3 L-12,2 Z " transform="translate(213,756)" style="fill: #21191D;"/><path d="M0,0 L103,0 L103,1 L3,1 L3,19 L0,20 Z " transform="translate(625,464)" style="fill: #3C353B;"/><path d="M0,0 L1,0 L2,40 L3,43 L1,45 L-20,45 L-20,59 L-22,58 L-22,56 L-24,55 L-22,55 L-22,43 L-18,42 L-7,42 L-3,40 L-1,40 L-1,21 L-2,19 L-1,10 L-1,1 Z " transform="translate(289,672)" style="fill: #2A2D34;"/><path d="M0,0 L1,3 L9,3 L9,0 L11,0 L12,16 L10,23 L9,23 L9,6 L-10,6 L-10,25 L9,25 L9,26 L-11,26 L-11,4 L-7,2 Z " transform="translate(887,816)" style="fill: #302C32;"/><path d="M0,0 L22,0 L22,22 L0,22 Z M1,2 L1,20 L20,20 L20,2 Z " transform="translate(436,757)" style="fill: #1D1323;"/><path d="M0,0 Z M-2,1 L0,1 L0,3 L3,2 L5,3 L6,1 L6,4 L2,5 L2,45 L-39,44 L-39,43 L1,43 L1,26 L-14,26 L-12,24 L1,24 L0,18 L1,4 L-1,4 Z M-2,14 Z M-1,15 Z " transform="translate(434,82)" style="fill: #0C1632;"/><path d="M0,0 L1,0 L1,38 L0,48 L-2,48 L-4,45 L-4,40 L-4,37 L-3,35 L-2,33 L-3,29 L-4,25 L-3,22 L-2,16 L-4,15 L-2,13 L-4,12 L-3,10 L-2,9 L-4,8 L-3,6 L-1,6 Z M-2,14 Z M-2,36 Z M-3,41 L-2,43 Z M-3,44 Z " transform="translate(248,264)" style="fill: #58595A;"/><path d="M0,0 L19,0 L19,21 L40,21 L40,42 L39,42 L39,23 L19,23 L17,21 L17,2 L-2,2 Z " transform="translate(312,799)" style="fill: #7BADBE;"/><path d="M0,0 Z M-2,-11 L-1,-11 L0,4 L-1,24 L-2,24 L-2,4 L-44,4 L-45,1 L-3,0 L-3,-10 Z M-43,2 L-43,3 L-3,3 L-3,2 Z " transform="translate(187,775)" style="fill: #5D6472;"/><path d="M0,0 L21,0 L21,22 L0,22 Z M2,1 L2,20 L20,20 L20,1 Z " transform="translate(415,820)" style="fill: #1D1218;"/><path d="M0,0 L1,0 L1,53 L-1,51 L-1,3 L-10,3 L-9,1 Z " transform="translate(246,84)" style="fill: #112437;"/><path d="M0,0 L19,0 L19,22 L40,22 L40,43 L39,43 L39,23 L18,23 L17,22 L17,2 L1,2 Z " transform="translate(354,588)" style="fill: #F1B752;"/><path d="M0,0 L20,0 L19,42 L18,42 L18,2 L2,2 L2,20 L0,20 Z " transform="translate(542,799)" style="fill: #6295BA;"/><path d="M0,0 L36,0 L36,20 L35,20 L34,14 L34,2 L-6,2 L-6,1 Z " transform="translate(400,757)" style="fill: #5A8DB2;"/><path d="M0,0 L20,0 L19,7 L18,7 L18,2 L1,2 L1,19 L20,19 L20,21 L0,21 Z " transform="translate(710,673)" style="fill: #131A2E;"/><path d="M0,0 L2,1 L2,3 L4,3 L4,12 L6,12 L7,10 L7,13 L15,11 L20,12 L33,12 L33,14 L20,15 L3,15 L2,12 L0,12 Z M2,4 L3,8 Z M30,11 Z " transform="translate(708,744)" style="fill: #3D3E47;"/><path d="M0,0 L20,0 L20,22 L19,22 L19,2 L1,2 L1,22 L-1,21 L-1,1 Z " transform="translate(731,462)" style="fill: #E1802D;"/><path d="M0,0 L1,0 L1,38 L20,38 L20,19 L21,19 L22,39 L21,40 L0,40 Z " transform="translate(268,150)" style="fill: #DB682E;"/><path d="M0,0 L2,0 L1,3 Z M2,2 L4,2 L5,46 L2,45 L2,39 L0,39 L1,35 L2,31 L0,28 L2,27 L2,16 L2,13 L0,10 L3,9 L0,4 L2,3 Z M0,34 Z " transform="translate(244,354)" style="fill: #636564;"/><path d="M0,0 L20,1 L20,2 L1,2 L1,20 L19,20 L19,3 L20,3 L21,22 L0,22 Z " transform="translate(563,757)" style="fill: #110D1D;"/><path d="M0,0 L32,1 L31,3 L-17,3 L-15,1 Z " transform="translate(336,41)" style="fill: #121921;"/><path d="M0,0 L1,0 L1,20 L18,20 L18,1 L20,5 L20,22 L0,22 Z " transform="translate(606,715)" style="fill: #1E1824;"/><path d="M0,0 L21,1 L18,5 L13,5 L10,4 L9,3 L6,5 L1,4 L1,23 L-20,23 L-21,26 L-21,22 L0,22 Z M1,2 Z " transform="translate(751,651)" style="fill: #685E5D;"/><path d="M0,0 L8,0 L8,22 L-28,22 L-26,20 L4,20 L5,3 L2,3 L2,1 Z " transform="translate(702,757)" style="fill: #4F7696;"/><path d="M0,0 L1,0 L1,39 L8,40 L8,41 L-2,41 L-1,2 Z " transform="translate(773,569)" style="fill: #142338;"/><path d="M0,0 L1,0 L3,20 L2,64 L1,64 L0,21 L-5,21 L-4,17 L1,16 L-1,4 L-2,2 L0,2 Z M0,17 L1,20 Z " transform="translate(101,799)" style="fill: #577B98;"/><path d="M0,0 L7,1 L16,1 L12,3 L11,4 L2,4 L2,16 L1,17 L0,37 L-1,37 L-1,2 Z " transform="translate(225,83)" style="fill: #4C4346;"/><path d="M0,0 L1,0 L1,41 L-1,41 L-2,32 L-2,20 L-1,4 Z " transform="translate(226,126)" style="fill: #20222A;"/><path d="M0,0 L46,0 L45,20 L44,20 L44,2 L23,2 L0,1 Z " transform="translate(307,358)" style="fill: #102136;"/><path d="M0,0 L1,0 L1,34 L0,35 L-8,35 L-8,37 L-12,36 L-13,38 L-17,37 L-15,36 L-16,34 L-13,32 L0,32 Z " transform="translate(792,576)" style="fill: #484448;"/><path d="M0,0 L20,0 L20,17 L18,24 L17,24 L17,2 L1,2 Z " transform="translate(375,64)" style="fill: #1C1A21;"/><path d="M0,0 L3,3 L3,26 L-17,26 L-17,25 L1,25 L1,7 L-5,7 L-4,5 L0,4 Z " transform="translate(265,58)" style="fill: #292E42;"/><path d="M0,0 Z M-1,1 L0,1 L1,17 L1,31 L-18,31 L-17,29 L-1,29 Z " transform="translate(267,159)" style="fill: #15202E;"/><path d="M0,0 L2,1 L2,25 L0,24 L0,22 L-2,21 L0,18 L-2,18 L-1,15 L-2,13 L0,13 L-1,8 L-3,7 L-2,3 L-11,2 L-11,1 Z M-1,4 L0,6 Z " transform="translate(267,440)" style="fill: #504E51;"/><path d="M0,0 L22,0 L22,1 L5,2 L3,5 L2,4 L2,16 L5,19 L7,19 L7,22 L0,23 L-1,21 Z " transform="translate(688,715)" style="fill: #58595F;"/><path d="M0,0 L4,1 L5,26 L6,26 L6,34 L5,31 L2,30 L1,28 L1,25 L2,22 L2,16 L1,14 L3,14 L3,10 L-1,9 L2,7 L1,4 Z " transform="translate(244,322)" style="fill: #434649;"/><path d="M0,0 L1,0 L1,43 L-7,42 L-3,40 L-1,40 L-1,21 L-2,19 L-1,10 L-1,1 Z " transform="translate(289,672)" style="fill: #64656C;"/><path d="M0,0 L10,0 L10,1 L15,1 L15,0 L20,0 L19,4 L-6,4 L-5,2 L0,1 Z " transform="translate(285,40)" style="fill: #38373F;"/><path d="M0,0 L5,0 L6,2 L13,2 L15,0 L15,3 L17,4 L9,5 L-7,5 L-8,3 L-2,1 L-1,2 Z " transform="translate(192,754)" style="fill: #5A5D65;"/><path d="M0,0 L1,0 L2,18 L40,19 L40,20 L-1,20 Z " transform="translate(374,822)" style="fill: #77A3B3;"/><path d="M0,0 L1,0 L2,7 L0,8 L-22,8 L-21,4 L-17,3 L-4,4 L-4,2 Z M-2,3 Z " transform="translate(80,856)" style="fill: #636875;"/><path d="M0,0 L22,0 L22,1 L3,2 L2,20 L0,20 Z " transform="translate(562,505)" style="fill: #302636;"/><path d="M0,0 L2,1 Z M-1,1 Z M2,1 L3,3 L13,3 L12,5 L-21,5 L-21,3 L-15,4 L-14,2 L-11,3 L1,3 Z " transform="translate(577,81)" style="fill: #676665;"/><path d="M0,0 L1,2 L14,2 L14,3 L3,3 L3,17 L0,18 Z " transform="translate(224,736)" style="fill: #373942;"/><path d="M0,0 L1,2 L3,3 L13,4 L14,2 L19,3 L22,3 L22,5 L-1,5 L-20,4 L-20,3 L-1,2 Z " transform="translate(897,837)" style="fill: #45464E;"/><path d="M0,0 L17,0 L17,13 L15,9 L15,2 L-4,2 Z " transform="translate(272,106)" style="fill: #A24E2D;"/><path d="M0,0 L1,2 L21,2 L21,4 L2,4 L2,15 L1,15 Z " transform="translate(247,228)" style="fill: #363337;"/><path d="M0,0 L1,2 L6,1 L6,3 L10,4 L-20,4 L-20,3 L-5,1 L0,2 Z " transform="translate(650,83)" style="fill: #1D232B;"/><path d="M0,0 L1,0 L1,35 L0,35 L-1,16 L-3,15 L-3,5 L-1,5 Z " transform="translate(59,957)" style="fill: #04060D;"/><path d="M0,0 L1,0 L1,19 L30,19 L30,20 L-1,21 Z " transform="translate(395,190)" style="fill: #E27D28;"/><path d="M0,0 L1,0 L1,12 L3,12 L4,9 L6,11 L12,12 L12,14 L0,14 L-1,12 L-1,1 Z " transform="translate(393,94)" style="fill: #202429;"/><path d="M0,0 L10,0 L11,3 L11,13 L9,18 L8,18 L8,1 L0,1 Z " transform="translate(888,821)" style="fill: #1C1E24;"/><path d="M0,0 L4,1 L3,20 L1,19 L1,2 L-9,2 L-9,1 Z " transform="translate(832,779)" style="fill: #12141B;"/><path d="M0,0 L2,0 L2,15 L1,20 L-3,15 L0,14 L0,8 L-4,7 L-1,3 Z M-2,6 Z " transform="translate(247,400)" style="fill: #373A3F;"/><path d="M0,0 L6,1 L12,0 L12,4 L4,4 L2,3 L1,23 L0,23 Z " transform="translate(666,104)" style="fill: #714F3A;"/><path d="M0,0 L1,3 L3,4 L2,5 L-14,5 L-13,1 L-5,2 L-3,1 L0,2 Z M-12,2 Z " transform="translate(766,754)" style="fill: #50515A;"/><path d="M0,0 L13,1 L13,4 L-12,3 L-12,2 Z " transform="translate(213,756)" style="fill: #18181F;"/><path d="M0,0 L7,1 L23,1 L26,1 L29,2 L27,2 L27,4 L1,3 Z " transform="translate(496,83)" style="fill: #4A4B4D;"/><path d="M0,0 L1,0 L1,39 L0,39 L-1,25 L-1,11 Z " transform="translate(329,551)" style="fill: #7D7B7E;"/><path d="M0,0 L1,0 L3,20 L0,20 L-5,21 L-4,17 L1,16 L-1,4 L-2,2 L0,2 Z " transform="translate(101,799)" style="fill: #4E5055;"/><path d="M0,0 L1,0 L1,20 L8,21 L8,22 L-2,22 Z " transform="translate(773,588)" style="fill: #11223A;"/><path d="M0,0 L2,0 L3,2 L20,2 L20,4 L2,5 L-2,2 Z " transform="translate(918,902)" style="fill: #424549;"/><path d="M0,0 L1,0 L2,9 L3,13 L2,19 L-1,17 L-1,5 Z M-2,17 Z " transform="translate(709,696)" style="fill: #3A3B42;"/><path d="M0,0 Z M-2,1 L0,1 L0,3 L3,2 L5,3 L6,1 L6,4 L2,5 L2,24 L0,20 L1,4 L-1,4 Z M-2,14 Z M-1,15 Z " transform="translate(434,82)" style="fill: #887F7D;"/><path d="M0,0 L7,2 L7,3 L-17,3 L-15,1 Z " transform="translate(336,41)" style="fill: #131922;"/><path d="M0,0 L1,0 L1,13 L-1,12 L-1,3 L-10,3 L-9,1 Z " transform="translate(246,84)" style="fill: #151E2C;"/><path d="M0,0 L23,0 L23,2 L17,3 L0,2 Z " transform="translate(591,84)" style="fill: #424547;"/><path d="M0,0 L3,2 L2,3 L1,18 L-1,19 L-1,7 L-4,4 L-3,1 Z " transform="translate(268,41)" style="fill: #525155;"/><path d="M0,0 L9,1 L8,3 L-16,3 L-16,2 L-3,1 Z " transform="translate(744,756)" style="fill: #171920;"/><path d="M0,0 L2,3 L3,11 L2,16 L1,22 L0,22 Z " transform="translate(392,66)" style="fill: #1D212A;"/><path d="M0,0 L1,0 L2,7 L2,16 L-1,15 L-1,9 L-3,9 L-2,5 L-1,5 Z M-3,4 Z " transform="translate(247,384)" style="fill: #515459;"/><path d="M0,0 L1,0 L0,10 L-1,25 L-2,25 L-2,1 Z " transform="translate(226,120)" style="fill: #544D51;"/><path d="M0,0 L2,1 L2,3 L4,3 L4,10 L2,13 L0,12 Z M2,4 L3,8 Z " transform="translate(708,744)" style="fill: #3E4048;"/><path d="M0,0 L1,0 L2,6 L2,16 L5,17 L-1,19 Z " transform="translate(729,128)" style="fill: #444447;"/><path d="M0,0 L7,0 L7,2 L18,2 L17,4 L4,4 L4,1 Z M5,1 Z " transform="translate(401,104)" style="fill: #2D3136;"/><path d="M0,0 L2,0 L2,11 L-2,12 L-2,9 L-2,6 L0,6 L0,3 L-2,2 Z M-1,8 Z M-3,9 Z " transform="translate(247,245)" style="fill: #4A4A4D;"/><path d="M0,0 L3,4 L3,21 L-1,19 L1,15 L2,6 L0,6 L-1,2 Z M1,19 Z M0,21 Z " transform="translate(265,463)" style="fill: #898181;"/><path d="M0,0 L1,0 L0,16 L-2,13 L-2,3 Z " transform="translate(248,256)" style="fill: #30292C;"/><path d="M0,0 L2,1 L1,14 L-1,15 L-1,1 Z " transform="translate(918,848)" style="fill: #1E2027;"/><path d="M0,0 L1,3 L4,2 L6,3 L7,1 L12,4 L12,6 L10,6 L10,4 L2,5 L-2,3 L0,3 Z " transform="translate(658,82)" style="fill: #5A4C4F;"/><path d="M0,0 L21,0 L21,1 L4,2 L2,5 Z " transform="translate(689,715)" style="fill: #707071;"/><path d="M0,0 L1,0 L1,16 L-1,16 L-1,13 L-3,12 L-1,12 L-1,5 Z " transform="translate(248,415)" style="fill: #1B2027;"/><path d="M0,0 L12,0 L9,4 L4,4 L1,3 Z " transform="translate(760,652)" style="fill: #878384;"/><path d="M0,0 L4,1 L4,14 L3,10 L-1,9 L2,7 L1,4 Z " transform="translate(244,322)" style="fill: #6A6A6D;"/><path d="M0,0 L2,2 L2,10 L-1,8 L-1,4 L-3,3 L-3,1 Z " transform="translate(247,314)" style="fill: #4D4E4C;"/><path d="M0,0 L1,0 L1,13 L-4,13 L-3,11 L-1,12 L-2,6 Z " transform="translate(60,1011)" style="fill: #21252B;"/><path d="M0,0 L2,1 L3,6 L4,10 L1,9 L1,7 L-1,7 L-1,1 Z " transform="translate(729,685)" style="fill: #48484D;"/><path d="M0,0 L5,0 L5,2 L10,3 L10,4 L-4,4 L0,1 Z " transform="translate(243,735)" style="fill: #505258;"/><path d="M0,0 L1,0 L1,15 L-1,14 L-1,1 Z " transform="translate(57,1001)" style="fill: #BEBEC5;"/><path d="M0,0 L5,1 L5,3 L-7,3 L-4,1 Z " transform="translate(699,735)" style="fill: #181A20;"/><path d="M0,0 L1,0 L1,11 L-2,11 L-3,9 L-1,8 L-1,1 Z " transform="translate(247,373)" style="fill: #636568;"/><path d="M0,0 L21,0 L21,1 L0,1 Z " transform="translate(800,776)" style="fill: #747676;"/><path d="M0,0 L1,3 L8,4 L8,5 L-2,5 Z " transform="translate(773,605)" style="fill: #1A1D2B;"/><path d="M0,0 L1,0 L1,11 L-1,11 L-1,2 Z " transform="translate(57,950)" style="fill: #AEAEBF;"/><path d="M0,0 L11,0 L11,1 L2,3 L0,6 Z " transform="translate(564,759)" style="fill: #36343A;"/><path d="M0,0 L5,0 L5,2 L8,4 L0,4 Z " transform="translate(307,40)" style="fill: #49484E;"/><path d="M0,0 L2,0 L3,3 L2,11 L0,10 Z " transform="translate(56,962)" style="fill: #9A9AB2;"/><path d="M0,0 L1,0 L1,9 L-7,8 L-3,6 L-1,6 Z " transform="translate(289,706)" style="fill: #5F6064;"/><path d="M0,0 L2,2 L2,9 L-1,9 Z " transform="translate(247,432)" style="fill: #222526;"/><path d="M0,0 L1,0 L2,9 L-1,10 L-1,1 Z " transform="translate(225,744)" style="fill: #565D64;"/><path d="M0,0 L5,1 L3,2 L3,4 L-4,4 L-3,2 L0,2 Z " transform="translate(520,83)" style="fill: #3F3F46;"/><path d="M0,0 L2,1 L1,4 L-4,5 L-3,1 Z " transform="translate(100,815)" style="fill: #7C7C97;"/><path d="M0,0 L3,1 L0,4 L-3,5 L-3,1 Z " transform="translate(631,443)" style="fill: #DD7C36;"/><path d="M0,0 L1,0 L1,11 L-3,6 L0,5 Z " transform="translate(247,409)" style="fill: #4A4E52;"/><path d="M0,0 L3,1 L0,1 Z M4,0 L10,0 L6,2 L3,1 Z " transform="translate(760,208)" style="fill: #B5A3A3;"/><path d="M0,0 L2,0 L2,12 L1,12 Z " transform="translate(307,653)" style="fill: #969696;"/><path d="M0,0 L9,0 L9,1 L0,2 Z " transform="translate(293,507)" style="fill: #CCC9C9;"/><path d="M0,0 L1,0 L1,6 L-1,5 Z " transform="translate(57,887)" style="fill: #838394;"/><path d="M0,0 L4,0 L4,2 L0,1 Z M-3,1 L0,2 Z " transform="translate(268,486)" style="fill: #908C8C;"/><path d="M0,0 L6,0 L5,2 L0,2 Z " transform="translate(744,144)" style="fill: #88665F;"/><path d="M0,0 L2,0 L2,5 L0,3 Z M0,5 Z " transform="translate(56,988)" style="fill: #CFCFCF;"/><path d="M0,0 L2,0 L2,5 L0,4 Z " transform="translate(56,980)" style="fill: #D4D4E9;"/><path d="M0,0 L1,0 L1,5 L-1,5 Z " transform="translate(57,923)" style="fill: #B9B9C4;"/><path d="M0,0 L0,3 Z M0,3 L1,7 Z " transform="translate(57,911)" style="fill: #D9D9E4;"/><path d="M0,0 L2,0 L2,5 L0,4 Z " transform="translate(56,897)" style="fill: #C4C4D9;"/><path d="M0,0 Z M1,1 L2,1 L2,7 L1,7 Z " transform="translate(56,873)" style="fill: #ECECEC;"/><path d="M0,0 L2,2 L-4,2 Z " transform="translate(90,817)" style="fill: #A9A9C2;"/><path d="M0,0 L2,4 L-1,4 Z " transform="translate(878,814)" style="fill: #8A8A8A;"/><path d="M0,0 L7,0 L7,1 L0,1 Z " transform="translate(822,776)" style="fill: #B2B2B2;"/><path d="M0,0 L3,1 L0,1 Z M4,0 L6,1 Z M3,1 Z " transform="translate(732,675)" style="fill: #D6D6D6;"/><path d="M0,0 L6,0 L3,2 Z " transform="translate(303,507)" style="fill: #979797;"/><path d="M0,0 L1,4 L-1,4 Z " transform="translate(57,975)" style="fill: #B8B8BF;"/><path d="M0,0 L2,1 L0,3 Z M1,3 Z " transform="translate(264,716)" style="fill: #B3B3B3;"/><path d="M0,0 L1,0 L1,6 L0,6 Z " transform="translate(308,666)" style="fill: #787878;"/><path d="M0,0 L6,0 L6,1 L0,1 Z " transform="translate(270,40)" style="fill: #B0A2A2;"/><path d="M0,0 L1,4 L-1,3 Z " transform="translate(57,945)" style="fill: #E5E5E5;"/><path d="M0,0 L2,1 L-2,2 Z " transform="translate(186,754)" style="fill: #DDDDDD;"/><path d="M0,0 L1,0 L1,5 L0,5 Z " transform="translate(711,738)" style="fill: #717171;"/><path d="M0,0 L1,0 L1,5 L0,5 Z " transform="translate(711,697)" style="fill: #767676;"/><path d="M0,0 L5,0 L5,1 L0,1 Z " transform="translate(318,650)" style="fill: #8B8B8B;"/><path d="M0,0 L2,1 L0,2 Z M2,1 L4,2 Z " transform="translate(778,376)" style="fill: #CBCBCB;"/><path d="M0,0 L3,1 L0,2 Z " transform="translate(740,144)" style="fill: #988787;"/><path d="M0,0 L1,4 L-1,1 Z " transform="translate(244,64)" style="fill: #C3C3C3;"/><path d="M0,0 L5,0 L5,1 L0,1 Z " transform="translate(277,40)" style="fill: #ADADAD;"/><path d="M0,0 L1,3 L-1,2 Z " transform="translate(57,997)" style="fill: #9494A9;"/><path d="M0,0 L0,3 Z " transform="translate(943,904)" style="fill: #B4B4B4;"/><path d="M0,0 L2,1 L1,3 Z " transform="translate(56,881)" style="fill: #BFBFBF;"/><path d="M0,0 L2,0 L2,2 L0,2 Z " transform="translate(140,796)" style="fill: #BFBFBF;"/><path d="M0,0 L4,1 Z " transform="translate(744,675)" style="fill: #B4B4B4;"/><path d="M0,0 L3,2 L0,2 Z " transform="translate(773,647)" style="fill: #989898;"/><path d="M0,0 L2,0 L1,3 Z " transform="translate(258,443)" style="fill: #DFDFDF;"/><path d="M0,0 L3,1 L0,1 Z " transform="translate(787,376)" style="fill: #B48A8A;"/><path d="M0,0 L2,1 L-1,1 Z " transform="translate(244,366)" style="fill: #B4B4B4;"/><path d="M0,0 L1,4 Z " transform="translate(433,91)" style="fill: #9F9F9F;"/><path d="M0,0 L1,4 Z " transform="translate(374,54)" style="fill: #A99494;"/><path d="M0,0 L4,1 Z " transform="translate(340,40)" style="fill: #BFBFBF;"/><path d="M0,0 L4,1 Z " transform="translate(315,40)" style="fill: #A99494;"/><path d="M0,0 L2,2 L0,2 Z " transform="translate(942,958)" style="fill: #FFFFFF;"/><path d="M0,0 Z " transform="translate(942,918)" style="fill: #9B9BB8;"/><path d="M0,0 L2,2 L0,2 Z " transform="translate(56,904)" style="fill: #D4D4D4;"/><path d="M0,0 Z " transform="translate(78,839)" style="fill: #D4D4D4;"/><path d="M0,0 L2,2 L0,2 Z " transform="translate(893,817)" style="fill: #A9A9A9;"/><path d="M0,0 L2,2 L0,2 Z " transform="translate(83,817)" style="fill: #9B9BB8;"/><path d="M0,0 L2,2 L0,2 Z " transform="translate(138,776)" style="fill: #FFFFFF;"/><path d="M0,0 Z " transform="translate(265,729)" style="fill: #A9A9A9;"/><path d="M0,0 L3,1 Z " transform="translate(695,717)" style="fill: #9B9B9B;"/><path d="M0,0 L3,1 Z " transform="translate(272,712)" style="fill: #9B9B9B;"/><path d="M0,0 Z " transform="translate(732,687)" style="fill: #CCCCCC;"/><path d="M0,0 L3,1 Z " transform="translate(773,651)" style="fill: #636363;"/><path d="M0,0 L1,2 L-1,1 Z " transform="translate(786,611)" style="fill: #B89B9B;"/><path d="M0,0 L2,1 L0,2 Z " transform="translate(773,612)" style="fill: #6A6464;"/><path d="M0,0 Z " transform="translate(308,512)" style="fill: #9B9B9B;"/><path d="M0,0 Z " transform="translate(265,470)" style="fill: #FFFFFF;"/><path d="M0,0 Z " transform="translate(794,443)" style="fill: #B89B9B;"/><path d="M0,0 L1,2 L-1,1 Z " transform="translate(245,429)" style="fill: #9B9B9B;"/><path d="M0,0 L2,1 L0,2 Z " transform="translate(244,419)" style="fill: #9B9B9B;"/><path d="M0,0 L2,1 L0,2 Z " transform="translate(244,411)" style="fill: #FFFFFF;"/><path d="M0,0 L2,1 L0,2 Z " transform="translate(773,303)" style="fill: #FFFFFF;"/><path d="M0,0 L1,2 L-1,1 Z " transform="translate(771,208)" style="fill: #B89B9B;"/><path d="M0,0 L2,0 L1,2 Z " transform="translate(264,208)" style="fill: #A9A9A9;"/><path d="M0,0 Z " transform="translate(244,173)" style="fill: #D4D4D4;"/><path d="M0,0 L1,2 L-1,1 Z " transform="translate(433,103)" style="fill: #AF9393;"/><path d="M0,0 L3,1 Z " transform="translate(426,104)" style="fill: #A9A9A9;"/><path d="M0,0 L2,2 L0,2 Z " transform="translate(480,82)" style="fill: #C68D8D;"/><path d="M0,0 L2,2 L0,2 Z " transform="translate(514,81)" style="fill: #D4D4D4;"/><path d="M0,0 Z " transform="translate(396,64)" style="fill: #D4D4D4;"/><path d="M0,0 L3,1 Z " transform="translate(322,40)" style="fill: #A9A9A9;"/><path d="M0,0 Z M1,1 Z " transform="translate(942,1010)" style="fill: #FFFFFF;"/><path d="M0,0 Z " transform="translate(56,973)" style="fill: #FFFFFF;"/><path d="M0,0 Z " transform="translate(57,942)" style="fill: #AAAAD4;"/><path d="M0,0 Z M1,1 Z " transform="translate(56,938)" style="fill: #FFFFFF;"/><path d="M0,0 L2,1 Z " transform="translate(942,935)" style="fill: #FFFFFF;"/><path d="M0,0 Z " transform="translate(57,934)" style="fill: #FFFFFF;"/><path d="M0,0 Z " transform="translate(57,907)" style="fill: #AAAAD4;"/><path d="M0,0 Z " transform="translate(57,894)" style="fill: #7F7F7F;"/><path d="M0,0 Z " transform="translate(56,862)" style="fill: #6A6A94;"/><path d="M0,0 Z " transform="translate(56,859)" style="fill: #FFFFFF;"/><path d="M0,0 L2,1 Z " transform="translate(900,823)" style="fill: #FFFFFF;"/><path d="M0,0 L2,1 Z " transform="translate(889,818)" style="fill: #6A6A94;"/><path d="M0,0 L2,1 Z " transform="translate(93,818)" style="fill: #BFBFBF;"/><path d="M0,0 Z " transform="translate(81,817)" style="fill: #B2B2B2;"/><path d="M0,0 L2,1 Z " transform="translate(140,787)" style="fill: #6A6A6A;"/><path d="M0,0 Z " transform="translate(836,777)" style="fill: #6A6A6A;"/><path d="M0,0 L2,1 Z " transform="translate(830,776)" style="fill: #555555;"/><path d="M0,0 Z M1,1 Z " transform="translate(772,755)" style="fill: #FFFFFF;"/><path d="M0,0 L2,1 Z " transform="translate(217,755)" style="fill: #FFFFFF;"/><path d="M0,0 L2,1 Z " transform="translate(719,754)" style="fill: #FFFFFF;"/><path d="M0,0 L2,1 Z " transform="translate(198,754)" style="fill: #BFBFBF;"/><path d="M0,0 L2,1 Z " transform="translate(198,752)" style="fill: #BFBFBF;"/><path d="M0,0 Z " transform="translate(690,728)" style="fill: #BFBFBF;"/><path d="M0,0 Z " transform="translate(265,723)" style="fill: #FFFFFF;"/><path d="M0,0 L2,1 Z " transform="translate(709,717)" style="fill: #AAAAAA;"/><path d="M0,0 Z " transform="translate(280,712)" style="fill: #6A6A6A;"/><path d="M0,0 L2,1 Z " transform="translate(733,695)" style="fill: #BFBFBF;"/><path d="M0,0 Z " transform="translate(748,678)" style="fill: #BFBFBF;"/><path d="M0,0 L2,1 Z " transform="translate(750,675)" style="fill: #AAAAAA;"/><path d="M0,0 L2,1 Z " transform="translate(741,675)" style="fill: #AAAAAA;"/><path d="M0,0 Z M1,1 Z " transform="translate(771,654)" style="fill: #FFFFFF;"/><path d="M0,0 L2,1 Z " transform="translate(312,650)" style="fill: #555555;"/><path d="M0,0 Z M1,1 Z " transform="translate(773,615)" style="fill: #FFFFFF;"/><path d="M0,0 L2,1 Z " transform="translate(781,614)" style="fill: #AAAAAA;"/><path d="M0,0 L2,1 Z " transform="translate(790,612)" style="fill: #BFBFBF;"/><path d="M0,0 Z " transform="translate(794,540)" style="fill: #BFBFBF;"/><path d="M0,0 L2,1 Z " transform="translate(304,523)" style="fill: #BFBFBF;"/><path d="M0,0 Z " transform="translate(308,518)" style="fill: #BFBFBF;"/><path d="M0,0 Z " transform="translate(255,444)" style="fill: #AAAAAA;"/><path d="M0,0 Z M1,1 Z " transform="translate(243,445)" style="fill: #FFFFFF;"/><path d="M0,0 L2,1 Z " transform="translate(249,444)" style="fill: #AAAAAA;"/><path d="M0,0 Z M1,1 Z " transform="translate(244,400)" style="fill: #7F7F7F;"/><path d="M0,0 Z " transform="translate(794,377)" style="fill: #7F7F7F;"/><path d="M0,0 Z " transform="translate(244,374)" style="fill: #BFBFBF;"/><path d="M0,0 Z " transform="translate(244,350)" style="fill: #7F7F7F;"/><path d="M0,0 Z " transform="translate(244,342)" style="fill: #AAAAAA;"/><path d="M0,0 Z " transform="translate(240,320)" style="fill: #FFFFFF;"/><path d="M0,0 Z " transform="translate(244,318)" style="fill: #BFBFBF;"/><path d="M0,0 Z " transform="translate(240,313)" style="fill: #BFBFBF;"/><path d="M0,0 Z M-1,1 Z " transform="translate(241,272)" style="fill: #FFFFFF;"/><path d="M0,0 Z " transform="translate(244,262)" style="fill: #BFBFBF;"/><path d="M0,0 Z " transform="translate(244,236)" style="fill: #AAAAAA;"/><path d="M0,0 L2,1 Z " transform="translate(254,228)" style="fill: #BFBFBF;"/><path d="M0,0 Z " transform="translate(244,178)" style="fill: #FFFFFF;"/><path d="M0,0 L2,1 Z " transform="translate(750,145)" style="fill: #BFBFBF;"/><path d="M0,0 Z M-1,1 Z " transform="translate(737,144)" style="fill: #FFFFFF;"/><path d="M0,0 L2,1 Z " transform="translate(733,127)" style="fill: #AAAAAA;"/><path d="M0,0 L2,1 Z " transform="translate(722,124)" style="fill: #7F7F7F;"/><path d="M0,0 L2,1 Z " transform="translate(699,124)" style="fill: #FFFFFF;"/><path d="M0,0 Z M1,1 Z " transform="translate(703,122)" style="fill: #FFFFFF;"/><path d="M0,0 L2,1 Z " transform="translate(680,104)" style="fill: #946A6A;"/><path d="M0,0 L2,1 Z " transform="translate(421,104)" style="fill: #BFBFBF;"/><path d="M0,0 L2,1 Z " transform="translate(410,104)" style="fill: #BFBFBF;"/><path d="M0,0 L2,1 Z " transform="translate(395,96)" style="fill: #7F7F7F;"/><path d="M0,0 L2,1 Z " transform="translate(616,83)" style="fill: #FFFFFF;"/><path d="M0,0 L2,1 Z " transform="translate(242,83)" style="fill: #6A6A6A;"/><path d="M0,0 L2,1 Z " transform="translate(601,82)" style="fill: #BFBFBF;"/><path d="M0,0 Z " transform="translate(436,81)" style="fill: #FFFFFF;"/><path d="M0,0 Z " transform="translate(244,78)" style="fill: #FFFFFF;"/><path d="M0,0 Z M-1,1 Z " transform="translate(398,71)" style="fill: #FFFFFF;"/><path d="M0,0 Z " transform="translate(244,69)" style="fill: #FFFFFF;"/><path d="M0,0 Z " transform="translate(398,66)" style="fill: #FFFFFF;"/><path d="M0,0 Z " transform="translate(374,59)" style="fill: #BFAAAA;"/><path d="M0,0 Z " transform="translate(374,51)" style="fill: #BFBFBF;"/><path d="M0,0 Z " transform="translate(374,47)" style="fill: #D4AAAA;"/><path d="M0,0 L2,1 Z " transform="translate(360,40)" style="fill: #BFBFBF;"/><path d="M0,0 L2,1 Z " transform="translate(346,40)" style="fill: #D4AAAA;"/><path d="M0,0 L2,1 Z " transform="translate(326,40)" style="fill: #946A6A;"/><path d="M0,0 Z " transform="translate(943,1021)" style="fill: #FFFFFF;"/><path d="M0,0 Z " transform="translate(57,1021)" style="fill: #FFFFFF;"/><path d="M0,0 Z " transform="translate(942,1018)" style="fill: #7F7F7F;"/><path d="M0,0 Z " transform="translate(943,1015)" style="fill: #7F7F7F;"/><path d="M0,0 Z " transform="translate(56,996)" style="fill: #FFFFFF;"/><path d="M0,0 Z " transform="translate(943,994)" style="fill: #7F7F7F;"/><path d="M0,0 Z " transform="translate(943,988)" style="fill: #FFFFFF;"/><path d="M0,0 Z " transform="translate(56,986)" style="fill: #FFFFFF;"/><path d="M0,0 Z " transform="translate(943,963)" style="fill: #FFFFFF;"/><path d="M0,0 Z " transform="translate(943,955)" style="fill: #FFFFFF;"/><path d="M0,0 Z " transform="translate(942,947)" style="fill: #FFFFFF;"/><path d="M0,0 Z " transform="translate(57,932)" style="fill: #FFFFFF;"/><path d="M0,0 Z " transform="translate(943,927)" style="fill: #FFFFFF;"/><path d="M0,0 Z " transform="translate(943,923)" style="fill: #FFFFFF;"/><path d="M0,0 Z " transform="translate(57,921)" style="fill: #7F7F7F;"/><path d="M0,0 Z " transform="translate(56,920)" style="fill: #FFFFFF;"/><path d="M0,0 Z " transform="translate(57,919)" style="fill: #5555AA;"/><path d="M0,0 Z " transform="translate(57,885)" style="fill: #FFFFFF;"/><path d="M0,0 Z " transform="translate(57,871)" style="fill: #7F7F7F;"/><path d="M0,0 Z " transform="translate(57,868)" style="fill: #FFFFFF;"/><path d="M0,0 Z " transform="translate(60,858)" style="fill: #FFFFFF;"/><path d="M0,0 Z " transform="translate(56,857)" style="fill: #FFFFFF;"/><path d="M0,0 Z " transform="translate(78,843)" style="fill: #FFFFFF;"/><path d="M0,0 Z " transform="translate(902,839)" style="fill: #5555AA;"/><path d="M0,0 Z " transform="translate(901,838)" style="fill: #FFFFFF;"/><path d="M0,0 Z " transform="translate(891,817)" style="fill: #FFFFFF;"/><path d="M0,0 Z " transform="translate(901,816)" style="fill: #5555AA;"/><path d="M0,0 Z " transform="translate(92,816)" style="fill: #7F7F7F;"/><path d="M0,0 Z " transform="translate(100,811)" style="fill: #FFFFFF;"/><path d="M0,0 Z " transform="translate(877,809)" style="fill: #FFFFFF;"/><path d="M0,0 Z " transform="translate(99,805)" style="fill: #FFFFFF;"/><path d="M0,0 Z " transform="translate(877,801)" style="fill: #FFFFFF;"/><path d="M0,0 Z " transform="translate(129,797)" style="fill: #FFFFFF;"/><path d="M0,0 Z " transform="translate(114,797)" style="fill: #FFFFFF;"/><path d="M0,0 Z " transform="translate(112,797)" style="fill: #FFFFFF;"/><path d="M0,0 Z " transform="translate(105,797)" style="fill: #5555AA;"/><path d="M0,0 Z " transform="translate(876,796)" style="fill: #FFFFFF;"/><path d="M0,0 Z " transform="translate(836,796)" style="fill: #FFFFFF;"/><path d="M0,0 Z " transform="translate(137,796)" style="fill: #FFFFFF;"/><path d="M0,0 Z " transform="translate(837,793)" style="fill: #7F7F7F;"/><path d="M0,0 Z " transform="translate(136,793)" style="fill: #FFFFFF;"/><path d="M0,0 Z " transform="translate(140,792)" style="fill: #7F7F7F;"/><path d="M0,0 Z " transform="translate(836,782)" style="fill: #FFFFFF;"/><path d="M0,0 Z " transform="translate(837,781)" style="fill: #7F7F7F;"/><path d="M0,0 Z " transform="translate(139,781)" style="fill: #5555AA;"/><path d="M0,0 Z " transform="translate(136,781)" style="fill: #5555AA;"/><path d="M0,0 Z " transform="translate(141,778)" style="fill: #7F7F7F;"/><path d="M0,0 Z " transform="translate(833,776)" style="fill: #486D6D;"/><path d="M0,0 Z " transform="translate(140,776)" style="fill: #555555;"/><path d="M0,0 Z " transform="translate(775,756)" style="fill: #7F7F7F;"/><path d="M0,0 Z " transform="translate(749,755)" style="fill: #FFFFFF;"/><path d="M0,0 Z " transform="translate(732,755)" style="fill: #FFFFFF;"/><path d="M0,0 Z " transform="translate(210,755)" style="fill: #FFFFFF;"/><path d="M0,0 Z " transform="translate(774,754)" style="fill: #FFFFFF;"/><path d="M0,0 Z " transform="translate(742,754)" style="fill: #FFFFFF;"/><path d="M0,0 Z " transform="translate(739,754)" style="fill: #7F7F7F;"/><path d="M0,0 Z " transform="translate(736,754)" style="fill: #FFFFFF;"/><path d="M0,0 Z " transform="translate(214,754)" style="fill: #FFFFFF;"/><path d="M0,0 Z " transform="translate(190,754)" style="fill: #7F7F7F;"/><path d="M0,0 Z " transform="translate(769,753)" style="fill: #FFFFFF;"/><path d="M0,0 Z " transform="translate(847,747)" style="fill: #FFFFFF;"/><path d="M0,0 Z " transform="translate(706,718)" style="fill: #FFFFFF;"/><path d="M0,0 Z " transform="translate(694,718)" style="fill: #7F7F7F;"/><path d="M0,0 Z " transform="translate(707,717)" style="fill: #666666;"/><path d="M0,0 Z " transform="translate(701,717)" style="fill: #FFFFFF;"/><path d="M0,0 Z " transform="translate(699,717)" style="fill: #7F7F7F;"/><path d="M0,0 Z " transform="translate(711,715)" style="fill: #FFFFFF;"/><path d="M0,0 Z " transform="translate(264,714)" style="fill: #555555;"/><path d="M0,0 Z " transform="translate(278,713)" style="fill: #7F7F7F;"/><path d="M0,0 Z " transform="translate(271,713)" style="fill: #FFFFFF;"/><path d="M0,0 Z " transform="translate(269,713)" style="fill: #666666;"/><path d="M0,0 Z " transform="translate(268,712)" style="fill: #7F7F7F;"/><path d="M0,0 Z " transform="translate(265,712)" style="fill: #7F7F7F;"/><path d="M0,0 Z " transform="translate(751,679)" style="fill: #7F7F7F;"/><path d="M0,0 Z " transform="translate(734,678)" style="fill: #7F7F7F;"/><path d="M0,0 Z " transform="translate(732,678)" style="fill: #7F7F7F;"/><path d="M0,0 Z " transform="translate(751,677)" style="fill: #7F7F7F;"/><path d="M0,0 Z " transform="translate(775,655)" style="fill: #FFFFFF;"/><path d="M0,0 Z " transform="translate(304,655)" style="fill: #FFFFFF;"/><path d="M0,0 Z " transform="translate(305,653)" style="fill: #7F7F7F;"/><path d="M0,0 Z " transform="translate(314,649)" style="fill: #FFFFFF;"/><path d="M0,0 Z " transform="translate(773,645)" style="fill: #7F7F7F;"/><path d="M0,0 Z " transform="translate(773,633)" style="fill: #FFFFFF;"/><path d="M0,0 Z " transform="translate(773,620)" style="fill: #7F7F7F;"/><path d="M0,0 Z " transform="translate(773,617)" style="fill: #7F7F7F;"/><path d="M0,0 Z " transform="translate(791,615)" style="fill: #FFFFFF;"/><path d="M0,0 Z " transform="translate(789,615)" style="fill: #FFFFFF;"/><path d="M0,0 Z " transform="translate(792,613)" style="fill: #FFFFFF;"/><path d="M0,0 Z " transform="translate(794,609)" style="fill: #FFFFFF;"/><path d="M0,0 Z " transform="translate(794,595)" style="fill: #FFFFFF;"/><path d="M0,0 Z " transform="translate(794,589)" style="fill: #7F7F7F;"/><path d="M0,0 Z " transform="translate(794,582)" style="fill: #FFFFFF;"/><path d="M0,0 Z " transform="translate(794,579)" style="fill: #7F7F7F;"/><path d="M0,0 Z " transform="translate(794,571)" style="fill: #7F7F7F;"/><path d="M0,0 Z " transform="translate(327,571)" style="fill: #FFFFFF;"/><path d="M0,0 Z " transform="translate(794,568)" style="fill: #FFFFFF;"/><path d="M0,0 Z " transform="translate(794,563)" style="fill: #FFFFFF;"/><path d="M0,0 Z " transform="translate(794,528)" style="fill: #FFFFFF;"/><path d="M0,0 Z " transform="translate(310,527)" style="fill: #666666;"/><path d="M0,0 Z " transform="translate(794,523)" style="fill: #FFFFFF;"/><path d="M0,0 Z " transform="translate(308,516)" style="fill: #7F7F7F;"/><path d="M0,0 Z " transform="translate(794,513)" style="fill: #FFFFFF;"/><path d="M0,0 Z " transform="translate(306,511)" style="fill: #555555;"/><path d="M0,0 Z " transform="translate(294,511)" style="fill: #FFFFFF;"/><path d="M0,0 Z " transform="translate(794,509)" style="fill: #FFFFFF;"/><path d="M0,0 Z " transform="translate(291,509)" style="fill: #FFFFFF;"/><path d="M0,0 Z " transform="translate(291,507)" style="fill: #FFFFFF;"/><path d="M0,0 Z " transform="translate(794,499)" style="fill: #FFFFFF;"/><path d="M0,0 Z " transform="translate(287,499)" style="fill: #FFFFFF;"/><path d="M0,0 Z " transform="translate(287,491)" style="fill: #FFFFFF;"/><path d="M0,0 Z " transform="translate(988,486)" style="fill: #FFFFFF;"/><path d="M0,0 Z " transform="translate(264,485)" style="fill: #FFFFFF;"/><path d="M0,0 Z " transform="translate(794,477)" style="fill: #FFFFFF;"/><path d="M0,0 Z " transform="translate(246,447)" style="fill: #FFFFFF;"/><path d="M0,0 Z " transform="translate(262,444)" style="fill: #FFFFFF;"/><path d="M0,0 Z " transform="translate(253,443)" style="fill: #FFFFFF;"/><path d="M0,0 Z " transform="translate(794,441)" style="fill: #7F7F7F;"/><path d="M0,0 Z " transform="translate(245,441)" style="fill: #FFFFFF;"/><path d="M0,0 Z " transform="translate(244,439)" style="fill: #7F7F7F;"/><path d="M0,0 Z " transform="translate(794,437)" style="fill: #FFFFFF;"/><path d="M0,0 Z " transform="translate(794,435)" style="fill: #AA5555;"/><path d="M0,0 Z " transform="translate(245,435)" style="fill: #FFFFFF;"/><path d="M0,0 Z " transform="translate(794,433)" style="fill: #7F7F7F;"/><path d="M0,0 Z " transform="translate(245,433)" style="fill: #FFFFFF;"/><path d="M0,0 Z " transform="translate(796,430)" style="fill: #FFFFFF;"/><path d="M0,0 Z " transform="translate(240,425)" style="fill: #FFFFFF;"/><path d="M0,0 Z " transform="translate(245,422)" style="fill: #FFFFFF;"/><path d="M0,0 Z " transform="translate(242,421)" style="fill: #FFFFFF;"/><path d="M0,0 Z " transform="translate(794,413)" style="fill: #FFFFFF;"/><path d="M0,0 Z " transform="translate(244,404)" style="fill: #FFFFFF;"/><path d="M0,0 Z " transform="translate(240,404)" style="fill: #FFFFFF;"/><path d="M0,0 Z " transform="translate(244,398)" style="fill: #FFFFFF;"/><path d="M0,0 Z " transform="translate(244,396)" style="fill: #FFFFFF;"/><path d="M0,0 Z " transform="translate(244,394)" style="fill: #FFFFFF;"/><path d="M0,0 Z " transform="translate(240,393)" style="fill: #FFFFFF;"/><path d="M0,0 Z " transform="translate(244,386)" style="fill: #FFFFFF;"/><path d="M0,0 Z " transform="translate(240,385)" style="fill: #FFFFFF;"/><path d="M0,0 Z " transform="translate(794,380)" style="fill: #7F7F7F;"/><path d="M0,0 Z " transform="translate(244,380)" style="fill: #7F7F7F;"/><path d="M0,0 Z " transform="translate(797,379)" style="fill: #FFFFFF;"/><path d="M0,0 Z " transform="translate(796,377)" style="fill: #FFFFFF;"/><path d="M0,0 Z " transform="translate(790,376)" style="fill: #FFFFFF;"/><path d="M0,0 Z " transform="translate(784,376)" style="fill: #7F7F7F;"/><path d="M0,0 Z " transform="translate(244,372)" style="fill: #7F7F7F;"/><path d="M0,0 Z " transform="translate(244,370)" style="fill: #555555;"/><path d="M0,0 Z " transform="translate(241,369)" style="fill: #FFFFFF;"/><path d="M0,0 Z " transform="translate(773,367)" style="fill: #7F7F7F;"/><path d="M0,0 Z " transform="translate(243,365)" style="fill: #FFFFFF;"/><path d="M0,0 Z " transform="translate(241,363)" style="fill: #FFFFFF;"/><path d="M0,0 Z " transform="translate(773,351)" style="fill: #7F7F7F;"/><path d="M0,0 Z " transform="translate(240,351)" style="fill: #FFFFFF;"/><path d="M0,0 Z " transform="translate(773,347)" style="fill: #7F7F7F;"/><path d="M0,0 Z " transform="translate(773,344)" style="fill: #FFFFFF;"/><path d="M0,0 Z " transform="translate(143,339)" style="fill: #FFFFFF;"/><path d="M0,0 Z " transform="translate(774,335)" style="fill: #7F7F7F;"/><path d="M0,0 Z " transform="translate(244,334)" style="fill: #7F7F7F;"/><path d="M0,0 Z " transform="translate(241,333)" style="fill: #7F7F7F;"/><path d="M0,0 Z " transform="translate(244,326)" style="fill: #555555;"/><path d="M0,0 Z " transform="translate(236,326)" style="fill: #FFFFFF;"/><path d="M0,0 Z " transform="translate(773,325)" style="fill: #FFFFFF;"/><path d="M0,0 Z " transform="translate(109,313)" style="fill: #FFFFFF;"/><path d="M0,0 Z " transform="translate(244,312)" style="fill: #7F7F7F;"/><path d="M0,0 Z " transform="translate(241,312)" style="fill: #FFFFFF;"/><path d="M0,0 Z " transform="translate(240,305)" style="fill: #7F7F7F;"/><path d="M0,0 Z " transform="translate(242,300)" style="fill: #FFFFFF;"/><path d="M0,0 Z " transform="translate(773,295)" style="fill: #FFFFFF;"/><path d="M0,0 Z " transform="translate(240,295)" style="fill: #7F7F7F;"/><path d="M0,0 Z " transform="translate(244,294)" style="fill: #7F7F7F;"/><path d="M0,0 Z " transform="translate(240,289)" style="fill: #555555;"/><path d="M0,0 Z " transform="translate(924,286)" style="fill: #FFFFFF;"/><path d="M0,0 Z " transform="translate(241,284)" style="fill: #7F7F7F;"/><path d="M0,0 Z " transform="translate(244,281)" style="fill: #7F7F7F;"/><path d="M0,0 Z " transform="translate(773,279)" style="fill: #FFFFFF;"/><path d="M0,0 Z " transform="translate(240,279)" style="fill: #FFFFFF;"/><path d="M0,0 Z " transform="translate(773,273)" style="fill: #7F7F7F;"/><path d="M0,0 Z " transform="translate(773,269)" style="fill: #FFFFFF;"/><path d="M0,0 Z " transform="translate(243,269)" style="fill: #7F7F7F;"/><path d="M0,0 Z " transform="translate(241,269)" style="fill: #FFFFFF;"/><path d="M0,0 Z " transform="translate(244,268)" style="fill: #FFFFFF;"/><path d="M0,0 Z " transform="translate(244,266)" style="fill: #7F7F7F;"/><path d="M0,0 Z " transform="translate(773,263)" style="fill: #7F7F7F;"/><path d="M0,0 Z " transform="translate(245,261)" style="fill: #FFFFFF;"/><path d="M0,0 Z " transform="translate(244,258)" style="fill: #FFFFFF;"/><path d="M0,0 Z " transform="translate(240,257)" style="fill: #FFFFFF;"/><path d="M0,0 Z " transform="translate(773,247)" style="fill: #7F7F7F;"/><path d="M0,0 Z " transform="translate(244,246)" style="fill: #555555;"/><path d="M0,0 Z " transform="translate(44,246)" style="fill: #FFFFFF;"/><path d="M0,0 Z " transform="translate(244,243)" style="fill: #555555;"/><path d="M0,0 Z " transform="translate(773,242)" style="fill: #FFFFFF;"/><path d="M0,0 Z " transform="translate(252,228)" style="fill: #FFFFFF;"/><path d="M0,0 Z " transform="translate(265,225)" style="fill: #FFFFFF;"/><path d="M0,0 Z " transform="translate(262,224)" style="fill: #FFFFFF;"/><path d="M0,0 Z " transform="translate(773,223)" style="fill: #FFFFFF;"/><path d="M0,0 Z " transform="translate(264,222)" style="fill: #7F7F7F;"/><path d="M0,0 Z " transform="translate(68,222)" style="fill: #FFFFFF;"/><path d="M0,0 Z " transform="translate(773,217)" style="fill: #7F7F7F;"/><path d="M0,0 Z " transform="translate(773,215)" style="fill: #555555;"/><path d="M0,0 Z " transform="translate(774,212)" style="fill: #AA5555;"/><path d="M0,0 Z " transform="translate(775,211)" style="fill: #FFFFFF;"/><path d="M0,0 Z " transform="translate(775,208)" style="fill: #FFFFFF;"/><path d="M0,0 Z " transform="translate(245,185)" style="fill: #555555;"/><path d="M0,0 Z " transform="translate(241,170)" style="fill: #FFFFFF;"/><path d="M0,0 Z " transform="translate(732,142)" style="fill: #7F7F7F;"/><path d="M0,0 Z " transform="translate(732,139)" style="fill: #FFFFFF;"/><path d="M0,0 Z " transform="translate(732,126)" style="fill: #AA5555;"/><path d="M0,0 Z " transform="translate(727,124)" style="fill: #7F7F7F;"/><path d="M0,0 Z " transform="translate(692,124)" style="fill: #FFFFFF;"/><path d="M0,0 Z " transform="translate(724,123)" style="fill: #FFFFFF;"/><path d="M0,0 Z " transform="translate(721,123)" style="fill: #FFFFFF;"/><path d="M0,0 Z " transform="translate(711,123)" style="fill: #FFFFFF;"/><path d="M0,0 Z " transform="translate(694,123)" style="fill: #7F7F7F;"/><path d="M0,0 Z " transform="translate(669,104)" style="fill: #7F7F7F;"/><path d="M0,0 Z " transform="translate(430,104)" style="fill: #7F7F7F;"/><path d="M0,0 Z " transform="translate(414,104)" style="fill: #7F7F7F;"/><path d="M0,0 Z " transform="translate(395,100)" style="fill: #7F7F7F;"/><path d="M0,0 Z " transform="translate(397,94)" style="fill: #7F7F7F;"/><path d="M0,0 Z " transform="translate(396,86)" style="fill: #FFFFFF;"/><path d="M0,0 Z " transform="translate(395,85)" style="fill: #7F7F7F;"/><path d="M0,0 Z " transform="translate(669,83)" style="fill: #FFFFFF;"/><path d="M0,0 Z " transform="translate(626,83)" style="fill: #7F7F7F;"/><path d="M0,0 Z " transform="translate(611,83)" style="fill: #AA5555;"/><path d="M0,0 Z " transform="translate(608,83)" style="fill: #7F5555;"/><path d="M0,0 Z " transform="translate(592,83)" style="fill: #FFFFFF;"/><path d="M0,0 Z " transform="translate(584,83)" style="fill: #7F7F7F;"/><path d="M0,0 Z " transform="translate(544,83)" style="fill: #FFFFFF;"/><path d="M0,0 Z " transform="translate(538,83)" style="fill: #7F7F7F;"/><path d="M0,0 Z " transform="translate(510,83)" style="fill: #FFFFFF;"/><path d="M0,0 Z " transform="translate(490,83)" style="fill: #FFFFFF;"/><path d="M0,0 Z " transform="translate(488,83)" style="fill: #FFFFFF;"/><path d="M0,0 Z " transform="translate(483,83)" style="fill: #FFFFFF;"/><path d="M0,0 Z " transform="translate(442,83)" style="fill: #FFFFFF;"/><path d="M0,0 Z " transform="translate(234,83)" style="fill: #FFFFFF;"/><path d="M0,0 Z " transform="translate(646,82)" style="fill: #FFFFFF;"/><path d="M0,0 Z " transform="translate(569,82)" style="fill: #FFFFFF;"/><path d="M0,0 Z " transform="translate(541,82)" style="fill: #FFFFFF;"/><path d="M0,0 Z " transform="translate(527,82)" style="fill: #FFFFFF;"/><path d="M0,0 Z " transform="translate(485,82)" style="fill: #FFFFFF;"/><path d="M0,0 Z " transform="translate(471,82)" style="fill: #FFFFFF;"/><path d="M0,0 Z " transform="translate(240,82)" style="fill: #FFFFFF;"/><path d="M0,0 Z " transform="translate(230,82)" style="fill: #7F7F7F;"/><path d="M0,0 Z " transform="translate(226,82)" style="fill: #7F7F7F;"/><path d="M0,0 Z " transform="translate(664,81)" style="fill: #AA5555;"/><path d="M0,0 Z " transform="translate(650,81)" style="fill: #7F7F7F;"/><path d="M0,0 Z " transform="translate(505,81)" style="fill: #FFFFFF;"/><path d="M0,0 Z " transform="translate(463,81)" style="fill: #FFFFFF;"/><path d="M0,0 Z " transform="translate(666,80)" style="fill: #FFFFFF;"/><path d="M0,0 Z " transform="translate(597,80)" style="fill: #FFFFFF;"/><path d="M0,0 Z " transform="translate(593,80)" style="fill: #7F7F7F;"/><path d="M0,0 Z " transform="translate(916,78)" style="fill: #FFFFFF;"/><path d="M0,0 Z " transform="translate(396,78)" style="fill: #FFFFFF;"/><path d="M0,0 Z " transform="translate(399,72)" style="fill: #7F7F7F;"/><path d="M0,0 Z " transform="translate(240,72)" style="fill: #FFFFFF;"/><path d="M0,0 Z " transform="translate(240,64)" style="fill: #FFFFFF;"/><path d="M0,0 Z " transform="translate(388,62)" style="fill: #7F7F7F;"/><path d="M0,0 Z " transform="translate(380,62)" style="fill: #7F7F7F;"/><path d="M0,0 Z " transform="translate(265,51)" style="fill: #FFFFFF;"/><path d="M0,0 Z " transform="translate(264,49)" style="fill: #FFFFFF;"/><path d="M0,0 Z " transform="translate(375,44)" style="fill: #666666;"/><path d="M0,0 Z " transform="translate(374,43)" style="fill: #7F7F7F;"/><path d="M0,0 Z " transform="translate(375,42)" style="fill: #AA5555;"/><path d="M0,0 Z " transform="translate(374,40)" style="fill: #FFFFFF;"/><path d="M0,0 Z " transform="translate(363,40)" style="fill: #FFFFFF;"/><path d="M0,0 Z " transform="translate(358,40)" style="fill: #FFFFFF;"/><path d="M0,0 Z " transform="translate(353,40)" style="fill: #FFFFFF;"/><path d="M0,0 Z " transform="translate(351,40)" style="fill: #FFFFFF;"/><path d="M0,0 Z " transform="translate(337,40)" style="fill: #7F7F7F;"/><path d="M0,0 Z " transform="translate(334,40)" style="fill: #7F7F7F;"/><path d="M0,0 Z " transform="translate(332,40)" style="fill: #FFFFFF;"/><path d="M0,0 Z " transform="translate(329,40)" style="fill: #FFFFFF;"/><path d="M0,0 Z " transform="translate(313,40)" style="fill: #FFFFFF;"/><path d="M0,0 Z " transform="translate(298,40)" style="fill: #7F7F7F;"/><path d="M0,0 Z " transform="translate(283,40)" style="fill: #7F7F7F;"/></svg>