<?xml version="1.0" encoding="utf-8" ?>
<svg xmlns="http://www.w3.org/2000/svg" xmlns:xlink="http://www.w3.org/1999/xlink" width="1024" height="1024">
	<path fill="#AE582F" d="M267.996 41.9982L372.362 42.0088C372.175 49.2629 372.185 56.5209 372.39 63.7745L372.91 63.967C379.892 63.8508 387.024 63.5391 393.996 63.9755C393.98 78.0006 393.865 92.0347 394.018 106.059C407.97 106.047 422.069 106.479 436.003 105.984L436.045 85.0007L591.649 85.0391C616.707 85.0368 641.897 84.4846 666.942 85.1028C666.912 92.0658 666.918 99.0289 666.959 105.992L687.991 106.082C687.982 112.866 688.069 119.664 687.953 126.446C701.883 125.253 716.018 126.646 729.98 125.949C729.997 133.046 729.891 140.169 730.089 147.261C737.007 147.12 744.103 146.801 750.999 147.464L750.936 186.526C750.923 194.595 750.631 202.869 751.256 210.905L771.486 211.023C770.852 244.084 771.479 277.219 771.505 310.288C771.522 333.003 770.464 356.26 771.893 378.921C778.768 379.083 785.646 378.922 792.514 379.072C791.332 408.355 792.142 437.955 792.204 467.263L792.522 609.976C785.722 609.974 778.885 609.826 772.089 610.006L771.832 637.453C771.798 642.232 771.431 647.304 771.825 652.058C764.926 652.043 757.93 651.794 751.042 652.121C750.95 659.085 750.925 666.049 750.967 673.013C744.007 672.977 736.982 672.747 730.029 672.993C730.002 679.891 730.406 687.054 729.848 693.915C723.221 693.935 716.568 693.839 709.944 694.02C709.963 700.993 710.154 708.016 709.921 714.982L688.509 714.998L688.485 735.996L710.018 735.993C709.955 742.986 709.963 749.98 710.039 756.973C730.685 757.114 751.331 757.14 771.977 757.051L771.969 778.966L834.977 778.971L834.891 799L875.899 799.013C876.074 805.954 875.887 812.891 875.904 819.833L876.311 819.994C883.532 819.99 890.814 819.789 898.027 820.06L898.006 841.754L919.044 841.945C918.98 862.923 918.683 883.952 919.027 904.924L940.641 905.056L940.781 980.187C940.78 994.717 940.21 1009.51 941.048 1024L919.012 1024L835.223 1024L814.205 1024L772.085 1024L750.895 1024L646.964 1024L625.514 1024L500.426 1024L478.515 1024L226.027 1024L206.794 1024L185.451 1024L80.8087 1024L59.0514 1024C59.3143 1004.25 59.0093 984.462 59.0035 964.707L59.0244 862.527L80.5903 862.558C80.272 848.481 80.7855 834.381 80.5967 820.295C87.7208 820.318 94.8446 820.208 101.965 819.963L102.103 819.61L102.103 799.465C115.73 799.654 129.39 799.214 143.019 799.053L143.033 778.898C157.103 779.026 171.375 779.055 185.435 778.707C185.269 771.483 185.377 764.238 185.38 757.01L225.841 757.045C225.53 750.057 225.57 743.037 225.497 736.043C239.666 735.926 253.892 735.378 268.039 736.385C268.148 729.407 268.147 722.427 268.036 715.449L289.783 715.399C289.255 706.243 289.507 696.963 289.647 687.798C289.722 682.909 290.184 677.844 289.39 673.005C296.487 672.965 303.584 672.997 310.68 673.1C310.818 666.351 311.328 659.234 310.568 652.527L332.147 652.746C330.462 642.893 331.496 629.864 331.438 619.708C331.328 599.845 331.329 579.982 331.44 560.119C331.499 548.714 331.908 537.398 331.478 525.992L310.477 525.881C311.372 519.083 310.795 511.845 310.591 505.006L289.524 504.964C289.242 498.004 289.477 490.966 289.512 483.997C282.386 483.895 275.259 483.85 268.132 483.863C267.985 469.877 267.961 455.889 268.061 441.902C261.004 442.155 253.932 441.662 246.859 441.971C247.378 433.166 247.135 424.267 247.137 415.448L247.138 372.529L247.08 231.009L267.988 230.989C268.288 217.33 268.014 203.601 268.018 189.936L267.911 189.631C261.068 189.177 253.997 189.844 247.1 189.647L247.044 168.198C239.728 167.823 232.341 167.942 225.013 167.802L225 85.0017C232.325 85.0718 239.652 85.0431 246.976 84.9155L247.203 84.6762C245.842 77.9875 247.203 71.184 246.044 64.3166C253.325 63.7988 260.701 64.0005 268.001 64.0002C268.041 56.6662 268.04 49.3321 267.996 41.9982Z"/>
	<path fill="#F4B36E" d="M436.045 85.0007L591.649 85.0391C616.707 85.0368 641.897 84.4846 666.942 85.1028C666.912 92.0658 666.918 99.0289 666.959 105.992L687.991 106.082C687.982 112.866 688.069 119.664 687.953 126.446C701.883 125.253 716.018 126.646 729.98 125.949C729.997 133.046 729.891 140.169 730.089 147.261C737.007 147.12 744.103 146.801 750.999 147.464L750.936 186.526C750.923 194.595 750.631 202.869 751.256 210.905L771.486 211.023C770.852 244.084 771.479 277.219 771.505 310.288C771.522 333.003 770.464 356.26 771.893 378.921C778.768 379.083 785.646 378.922 792.514 379.072C791.332 408.355 792.142 437.955 792.204 467.263L792.522 609.976C785.722 609.974 778.885 609.826 772.089 610.006L771.832 637.453C771.798 642.232 771.431 647.304 771.825 652.058C764.926 652.043 757.93 651.794 751.042 652.121C750.95 659.085 750.925 666.049 750.967 673.013C744.007 672.977 736.982 672.747 730.029 672.993C723.258 673.277 716.395 673.081 709.613 673.113C701.006 674.389 691.292 672.975 682.522 672.985L606.018 673.023L606.014 651.953L562.505 651.977L562.56 630.463C550.358 630.13 532.403 629.829 520.528 631.05L520.535 610.001L479.003 610.023L479.02 588.044L457.983 587.983L458.071 568.943C450.567 568.994 443.062 569.007 435.557 568.982C437.547 554.687 436.056 539.901 436.029 525.529L415.639 525.332C414.938 504.373 415.008 483.473 415.072 462.502C408.234 462.174 401.389 461.999 394.543 461.979L394.513 316.021L415.543 315.985C415.4 295.076 414.727 274.258 415.22 253.33C421.939 252.712 428.926 253.027 435.682 253.001C435.333 240.951 434.955 228.233 435.902 216.247L435.994 210.778C443.269 211.621 451.203 211.018 458.552 210.993C458.59 203.997 458.745 196.906 458.156 189.932L562.502 189.988L562.614 168.558C541.744 168.238 520.87 168.223 499.999 168.514L500.022 147.482L414.991 147.507C415.142 140.618 415.191 133.817 414.945 126.927C421.957 127.012 428.978 126.933 435.99 126.931L436.003 105.984L436.045 85.0007Z"/>
	<path fill="#D97931" d="M435.682 253.001C435.333 240.951 434.955 228.233 435.902 216.247C436.404 249.483 435.919 282.762 436.016 316.004L415.537 315.999L415.55 421.022L436.02 420.996L436.004 462.14C443.523 462.346 451.045 462.466 458.568 462.498C458.551 469.668 458.435 476.853 458.552 484.021C465.371 483.914 472.191 483.766 479.009 483.578L479.001 505.066C492.84 504.968 506.68 504.943 520.52 504.991C520.503 497.872 520.297 490.692 520.875 483.594L541.828 483.621C541.823 476.588 541.654 469.515 541.858 462.488C569.509 462.497 597.426 463.306 625.042 462.22C625.648 455.424 625.335 448.755 624.965 441.955L730.024 441.955L730.011 462.475C737.005 462.359 743.944 462.186 750.944 462.289L750.957 484.024L772.119 484.012C772.181 449.001 772.927 413.918 771.893 378.921C778.768 379.083 785.646 378.922 792.514 379.072C791.332 408.355 792.142 437.955 792.204 467.263L792.522 609.976C785.722 609.974 778.885 609.826 772.089 610.006L771.832 637.453C771.798 642.232 771.431 647.304 771.825 652.058C764.926 652.043 757.93 651.794 751.042 652.121C750.95 659.085 750.925 666.049 750.967 673.013C744.007 672.977 736.982 672.747 730.029 672.993C723.258 673.277 716.395 673.081 709.613 673.113C701.006 674.389 691.292 672.975 682.522 672.985L606.018 673.023L606.014 651.953L562.505 651.977L562.56 630.463C550.358 630.13 532.403 629.829 520.528 631.05L520.535 610.001L479.003 610.023L479.02 588.044L457.983 587.983L458.071 568.943C450.567 568.994 443.062 569.007 435.557 568.982C437.547 554.687 436.056 539.901 436.029 525.529L415.639 525.332C414.938 504.373 415.008 483.473 415.072 462.502C408.234 462.174 401.389 461.999 394.543 461.979L394.513 316.021L415.543 315.985C415.4 295.076 414.727 274.258 415.22 253.33C421.939 252.712 428.926 253.027 435.682 253.001Z"/>
	<path fill="#353438" d="M771.893 378.921C778.768 379.083 785.646 378.922 792.514 379.072C791.332 408.355 792.142 437.955 792.204 467.263L792.522 609.976C785.722 609.974 778.885 609.826 772.089 610.006L771.832 637.453C771.798 642.232 771.431 647.304 771.825 652.058C764.926 652.043 757.93 651.794 751.042 652.121L751.042 630.996L751.062 610.057C758.005 609.74 765.067 609.969 772.024 609.933L772.117 569.467L772.119 484.012C772.181 449.001 772.927 413.918 771.893 378.921Z"/>
	<path fill="#353438" d="M625.216 462.499C642.787 462.222 660.389 462.41 677.964 462.397C695.321 462.383 712.654 462.157 730.011 462.475C729.929 469.75 730.031 477.034 730.058 484.309C714.102 483.677 698.095 484.034 682.13 484.022C663.166 483.822 644.2 483.914 625.239 484.299C625.491 477.034 625.483 469.763 625.216 462.499Z"/>
	<path fill="#AE582F" d="M729.985 630.968C737.004 630.935 744.023 630.944 751.042 630.996L751.042 652.121C750.95 659.085 750.925 666.049 750.967 673.013C744.007 672.977 736.982 672.747 730.029 672.993L730.018 652.134L729.985 630.968Z"/>
	<path fill="#353438" d="M751.042 652.121C750.95 659.085 750.925 666.049 750.967 673.013C744.007 672.977 736.982 672.747 730.029 672.993L730.018 652.134L751.042 652.121Z"/>
	<path fill="#AE582F" d="M750.981 569.032C757.976 568.948 765.162 568.646 772.117 569.467L772.024 609.933C765.067 609.969 758.005 609.74 751.062 610.057L750.981 569.032Z"/>
	<path fill="#353438" d="M709.499 505.054L730.259 505.064C730.427 512.209 730.266 519.392 730.258 526.542C723.376 526.058 716.476 526.056 709.581 525.976C709.533 532.98 709.584 539.985 709.733 546.988L688.976 547.094L689.066 567.51L605.484 567.596L605.523 546.999L583.764 546.996C583.745 540.006 583.771 533.015 583.843 526.025L562.143 526.456C562.427 519.367 562.401 512.269 562.066 505.183C569.352 505.584 576.699 505.267 583.991 505.12C625.837 505.046 667.653 505.506 709.499 505.054Z"/>
	<path fill="#F4B36E" d="M583.991 505.12C625.837 505.046 667.653 505.506 709.499 505.054L709.511 525.796C693.548 525.065 677.469 525.452 661.491 525.48L583.989 525.582L583.991 505.12Z"/>
	<path fill="#D97931" d="M436.045 85.0007L591.649 85.0391C616.707 85.0368 641.897 84.4846 666.942 85.1028C666.912 92.0658 666.918 99.0289 666.959 105.992L687.991 106.082C687.982 112.866 688.069 119.664 687.953 126.446C701.883 125.253 716.018 126.646 729.98 125.949C729.997 133.046 729.891 140.169 730.089 147.261C737.007 147.12 744.103 146.801 750.999 147.464L750.936 186.526C750.923 194.595 750.631 202.869 751.256 210.905L771.486 211.023C770.852 244.084 771.479 277.219 771.505 310.288C771.522 333.003 770.464 356.26 771.893 378.921L751.043 379.173L751.044 316.001L751.021 295.266L751.07 210.974L729.999 210.994L729.998 190.05C723.63 189.767 717.263 189.974 710.897 190.19C701.622 191.847 681.826 189.998 671.251 189.977L562.502 189.988L562.614 168.558C541.744 168.238 520.87 168.223 499.999 168.514L500.022 147.482L414.991 147.507C415.142 140.618 415.191 133.817 414.945 126.927C421.957 127.012 428.978 126.933 435.99 126.931L436.003 105.984L436.045 85.0007Z"/>
	<path fill="#353438" d="M436.045 85.0007L591.649 85.0391C616.707 85.0368 641.897 84.4846 666.942 85.1028C666.912 92.0658 666.918 99.0289 666.959 105.992L687.991 106.082C687.982 112.866 688.069 119.664 687.953 126.446C701.883 125.253 716.018 126.646 729.98 125.949C729.997 133.046 729.891 140.169 730.089 147.261C737.007 147.12 744.103 146.801 750.999 147.464L750.936 186.526C750.923 194.595 750.631 202.869 751.256 210.905L771.486 211.023C770.852 244.084 771.479 277.219 771.505 310.288C771.522 333.003 770.464 356.26 771.893 378.921L751.043 379.173L751.044 316.001L751.021 295.266L751.07 210.974L729.999 210.994L729.998 190.05C723.63 189.767 717.263 189.974 710.897 190.19L709.939 189.838C707.909 185.569 709.143 154.715 709.526 148.096C702.965 148.12 696.363 148.294 689.812 147.929C688.599 147.868 689.144 148.05 688.165 147.418C686.862 142.673 687.928 131.999 688.019 126.719L666.594 127C666.696 119.994 666.629 112.979 666.634 105.972C589.786 106.865 512.859 106.061 436.003 105.984L436.045 85.0007Z"/>
	<path fill="#AE582F" d="M689.812 147.929C702.935 146.511 716.793 147.996 730.038 147.598L729.998 190.05C723.63 189.767 717.263 189.974 710.897 190.19L709.939 189.838C707.909 185.569 709.143 154.715 709.526 148.096C702.965 148.12 696.363 148.294 689.812 147.929Z"/>
	<path fill="#353438" d="M709.504 339.488L730.533 339.508C730.201 359.384 730.803 379.288 730.119 399.154C736.936 399.028 743.754 398.979 750.572 399.007L750.944 462.289C743.944 462.186 737.005 462.359 730.011 462.475L730.024 441.955L730.035 399.498L709.508 399.497L709.504 339.488Z"/>
	<path fill="#AE582F" d="M751.021 295.266L751.044 316.001L687.522 315.989L687.024 295.023C708.357 294.883 729.69 294.964 751.021 295.266Z"/>
	<path fill="#AE582F" d="M520.261 295.053C548.648 294.62 577.101 294.905 605.494 295.07C605.592 302.04 605.592 309.01 605.495 315.979L562.75 315.908L520.316 316.002C520.668 322.991 520.537 329.989 520.489 336.984L498.559 336.987L498.592 316.018L520.282 316.001L520.261 295.053Z"/>
	<path fill="#353438" d="M562.097 339.49L583.997 339.498C583.986 345.703 584.91 397.213 583.363 399.505L562.132 399.504C563.352 380.552 563.321 358.448 562.097 339.49Z"/>
	<path fill="#678F9D" d="M289.39 673.005C296.487 672.965 303.584 672.997 310.68 673.1C310.027 682.69 310.467 692.525 310.468 702.14C310.612 720.445 310.463 738.751 310.022 757.052C309.532 769.056 308.464 786.682 310.107 798.391C311.221 799.313 312.847 799.137 314.278 799.209C319.797 798.759 325.504 798.935 331.039 799.076C330.996 806.076 330.991 813.077 331.024 820.077C338.201 819.988 345.379 819.979 352.556 820.051L352.49 841.99L373.016 841.985C387.095 841.547 401.248 841.093 415.32 841.911C422.012 841.902 428.934 841.559 435.587 842.243C444.698 843.263 454.359 842.386 463.529 842.137C468.498 842.001 473.557 842.239 478.507 841.952C485.675 841.689 492.858 841.881 500.028 841.98L500.089 909.35C500.086 919.371 499.134 932.348 500.408 942.075C500.152 959.156 499.895 976.347 500.011 993.427C500.08 1003.63 500.497 1013.79 500.426 1024L478.515 1024L226.027 1024L206.794 1024L185.451 1024L80.8087 1024L59.0514 1024C59.3143 1004.25 59.0093 984.462 59.0035 964.707L59.0244 862.527L80.5903 862.558C80.272 848.481 80.7855 834.381 80.5967 820.295C87.7208 820.318 94.8446 820.208 101.965 819.963L102.103 819.61L102.103 799.465C115.73 799.654 129.39 799.214 143.019 799.053L143.033 778.898C157.103 779.026 171.375 779.055 185.435 778.707C185.269 771.483 185.377 764.238 185.38 757.01L225.841 757.045C225.53 750.057 225.57 743.037 225.497 736.043C239.666 735.926 253.892 735.378 268.039 736.385C268.148 729.407 268.147 722.427 268.036 715.449L289.783 715.399C289.255 706.243 289.507 696.963 289.647 687.798C289.722 682.909 290.184 677.844 289.39 673.005Z"/>
	<path fill="#537B9C" d="M289.39 673.005C296.487 672.965 303.584 672.997 310.68 673.1C310.027 682.69 310.467 692.525 310.468 702.14C310.612 720.445 310.463 738.751 310.022 757.052C309.532 769.056 308.464 786.682 310.107 798.391C311.221 799.313 312.847 799.137 314.278 799.209C303.79 800.813 292.371 799.536 281.773 799.479C263.173 799.381 244.585 799.599 225.984 799.317L226.032 820.286C212.577 820.065 199.008 819.831 185.56 820.355L185.544 842.011L143.039 842.057L142.996 863.066L164.267 862.967L164.011 883.007L185.564 883.007C185.636 897.071 185.6 911.135 185.456 925.198C187.96 924.978 192.691 924.154 194.884 925.317C191.774 925.352 188.594 925.266 185.498 925.544C185.216 958.362 185.201 991.182 185.451 1024L80.8087 1024L59.0514 1024C59.3143 1004.25 59.0093 984.462 59.0035 964.707L59.0244 862.527L80.5903 862.558C80.272 848.481 80.7855 834.381 80.5967 820.295C87.7208 820.318 94.8446 820.208 101.965 819.963L102.103 819.61L102.103 799.465C115.73 799.654 129.39 799.214 143.019 799.053L143.033 778.898C157.103 779.026 171.375 779.055 185.435 778.707C185.269 771.483 185.377 764.238 185.38 757.01L225.841 757.045C225.53 750.057 225.57 743.037 225.497 736.043C239.666 735.926 253.892 735.378 268.039 736.385C268.148 729.407 268.147 722.427 268.036 715.449L289.783 715.399C289.255 706.243 289.507 696.963 289.647 687.798C289.722 682.909 290.184 677.844 289.39 673.005Z"/>
	<path fill="#353438" d="M289.39 673.005C296.487 672.965 303.584 672.997 310.68 673.1C310.027 682.69 310.467 692.525 310.468 702.14C310.612 720.445 310.463 738.751 310.022 757.052C303.027 756.995 296.031 756.989 289.035 757.033L289.024 737.01C282.021 736.985 274.999 737.066 267.998 736.914L267.991 757.014L225.777 756.983L225.989 779.007L198.495 778.931C194.146 778.888 189.781 778.554 185.435 778.707C185.269 771.483 185.377 764.238 185.38 757.01L225.841 757.045C225.53 750.057 225.57 743.037 225.497 736.043C239.666 735.926 253.892 735.378 268.039 736.385C268.148 729.407 268.147 722.427 268.036 715.449L289.783 715.399C289.255 706.243 289.507 696.963 289.647 687.798C289.722 682.909 290.184 677.844 289.39 673.005Z"/>
	<path fill="#353438" d="M59.0244 862.527L80.5903 862.558C80.6005 871.756 81.0476 880.942 81.0292 890.152C80.9399 934.75 80.1768 979.406 80.8087 1024L59.0514 1024C59.3143 1004.25 59.0093 984.462 59.0035 964.707L59.0244 862.527Z"/>
	<path fill="#353438" d="M80.5967 820.295C87.7208 820.318 94.8446 820.208 101.965 819.963C103.341 834.17 102.372 848.793 102.132 863.048C94.9568 862.696 87.7738 862.532 80.5903 862.558C80.272 848.481 80.7855 834.381 80.5967 820.295Z"/>
	<path fill="#353438" d="M143.033 778.898C157.103 779.026 171.375 779.055 185.435 778.707L185.457 799.038L143.019 799.053L143.033 778.898Z"/>
	<path fill="#353438" d="M143.019 799.053L143.03 820.014C135.671 820.022 107.214 821.059 102.103 819.61L102.103 799.465C115.73 799.654 129.39 799.214 143.019 799.053Z"/>
	<path fill="#353438" d="M478.507 841.952C485.675 841.689 492.858 841.881 500.028 841.98L500.089 909.35C500.086 919.371 499.134 932.348 500.408 942.075C500.152 959.156 499.895 976.347 500.011 993.427C500.08 1003.63 500.497 1013.79 500.426 1024L478.515 1024L478.507 841.952Z"/>
	<path fill="#353438" d="M185.498 925.544C188.594 925.266 191.774 925.352 194.884 925.317L206.925 925.508C206.908 939.377 207.214 953.326 206.837 967.185C206.681 986.123 206.666 1005.06 206.794 1024L185.451 1024C185.201 991.182 185.216 958.362 185.498 925.544Z"/>
	<path fill="#537B9C" d="M206.837 967.185C213.243 966.929 219.628 966.912 226.038 966.948L226.027 1024L206.794 1024C206.666 1005.06 206.681 986.123 206.837 967.185Z"/>
	<path fill="#353438" d="M373.016 841.985C387.095 841.547 401.248 841.093 415.32 841.911C415.601 848.909 415.425 855.985 415.461 862.992L372.71 862.986C372.639 855.994 372.887 848.977 373.016 841.985Z"/>
	<path fill="#678F9D" d="M710.039 756.973C730.685 757.114 751.331 757.14 771.977 757.051L771.969 778.966L834.977 778.971L834.891 799L875.899 799.013C876.074 805.954 875.887 812.891 875.904 819.833L876.311 819.994C883.532 819.99 890.814 819.789 898.027 820.06L898.006 841.754L919.044 841.945C918.98 862.923 918.683 883.952 919.027 904.924L940.641 905.056L940.781 980.187C940.78 994.717 940.21 1009.51 941.048 1024L919.012 1024L835.223 1024L814.205 1024L772.085 1024L750.895 1024L646.964 1024L625.514 1024L500.426 1024C500.497 1013.79 500.08 1003.63 500.011 993.427C499.895 976.347 500.152 959.156 500.408 942.075C499.134 932.348 500.086 919.371 500.089 909.35L500.028 841.98L520.996 842.008C521.055 834.662 520.764 827.326 520.511 819.985L541.996 820.014L541.952 798.988C548.624 798.994 555.406 798.766 562.061 799.184C561.205 813.318 561.017 827.855 561.814 841.988C568.786 842.02 576.888 842.833 583.711 841.758C582.767 827.658 583.519 813.05 583.74 798.909L562.481 798.999L562.523 778.846C569.584 779.05 576.67 778.973 583.735 779.002L624.689 779.004C631.912 778.996 639.92 778.3 647.011 779.485L646.998 798.996C654.004 798.914 661.011 799.09 668.004 799.522L667.986 779.019C675.69 778.918 683.384 779.429 691.085 779.481C697.341 779.523 703.624 779.086 709.885 778.998C709.735 771.62 709.758 764.347 710.039 756.973Z"/>
	<path fill="#678F9D" d="M646.942 925.497C681.925 926.024 716.98 925.597 751.969 925.448C749.734 934.917 750.811 946.476 750.755 956.19L750.895 1024L646.964 1024L646.942 925.497Z"/>
	<path fill="#353438" d="M625.506 904.416C674.297 905.122 723.203 904.438 772.007 904.485L772.1 910.234L772.009 925.554C765.329 925.445 758.649 925.41 751.969 925.448C716.98 925.597 681.925 926.024 646.942 925.497L646.964 1024L625.514 1024L625.506 904.416Z"/>
	<path fill="#353438" d="M876.311 819.994C883.532 819.99 890.814 819.789 898.027 820.06L898.006 841.754L919.044 841.945C918.98 862.923 918.683 883.952 919.027 904.924L940.641 905.056L940.781 980.187C940.78 994.717 940.21 1009.51 941.048 1024L919.012 1024L919.051 904.958L897.503 904.99C897.694 883.95 897.37 862.903 897.696 841.865C890.488 842.117 883.235 841.982 876.021 842.002C875.953 834.921 875.238 826.971 876.311 819.994Z"/>
	<path fill="#678F9D" d="M562.523 778.846C569.584 779.05 576.67 778.973 583.735 779.002L624.689 779.004C631.912 778.996 639.92 778.3 647.011 779.485L646.998 798.996C639.836 798.97 632.667 798.875 625.505 798.955C625.416 813.286 625.405 827.617 625.472 841.948C611.723 840.962 597.727 841.561 583.952 841.943L583.711 841.758C582.767 827.658 583.519 813.05 583.74 798.909L562.481 798.999L562.523 778.846Z"/>
	<path fill="#537B9C" d="M541.952 798.988C548.624 798.994 555.406 798.766 562.061 799.184C561.205 813.318 561.017 827.855 561.814 841.988C568.786 842.02 576.888 842.833 583.711 841.758L583.952 841.943C583.544 848.941 583.412 855.952 583.558 862.961C555.965 863.015 528.118 862.164 500.559 863.19L500.597 914.746C500.601 923.757 501.101 933.109 500.408 942.075C499.134 932.348 500.086 919.371 500.089 909.35L500.028 841.98L520.996 842.008C521.055 834.662 520.764 827.326 520.511 819.985L541.996 820.014L541.952 798.988Z"/>
	<path fill="#353438" d="M771.969 778.966L834.977 778.971L834.891 799L875.899 799.013C876.074 805.954 875.887 812.891 875.904 819.833C862.109 820.835 848.323 820.309 834.508 820.041C834.471 813.048 834.606 806.047 834.666 799.054C813.786 798.821 792.904 798.91 772.027 799.319L771.969 778.966Z"/>
	<path fill="#537B9C" d="M772.1 910.234C772.842 915.058 772.513 920.212 772.53 925.103C772.567 936.092 772.265 947.002 772.079 957.983C771.708 979.964 771.967 1002.01 772.085 1024L750.895 1024L750.755 956.19C750.811 946.476 749.734 934.917 751.969 925.448C758.649 925.41 765.329 925.445 772.009 925.554L772.1 910.234Z"/>
	<path fill="#353438" d="M814.002 925.098C820.938 926.046 828.056 925.101 835.024 925.573C835.375 958.381 835.442 991.191 835.223 1024L814.205 1024C814.701 991.034 814.634 958.061 814.002 925.098Z"/>
	<path fill="#353438" d="M710.039 756.973C730.685 757.114 751.331 757.14 771.977 757.051L771.969 778.966L709.885 778.998C709.735 771.62 709.758 764.347 710.039 756.973Z"/>
	<path fill="#537B9C" d="M834.871 883.037C842.421 883.033 850.006 882.892 857.549 883.232C857.425 897.326 857.526 911.422 857.852 925.513C850.266 925.523 842.599 925.292 835.024 925.573C828.056 925.101 820.938 926.046 814.002 925.098C820.951 924.74 828.017 925.028 834.978 925.075C834.617 911.063 834.885 897.052 834.871 883.037Z"/>
	<path fill="#353438" d="M625.505 798.955C632.667 798.875 639.836 798.97 646.998 798.996C646.891 813.332 646.893 827.669 647.004 842.005L625.472 841.948C625.405 827.617 625.416 813.286 625.505 798.955Z"/>
	<path fill="#353438" d="M583.952 841.943C597.727 841.561 611.723 840.962 625.472 841.948L625.527 863.042C611.51 863.269 597.571 863.487 583.558 862.961C583.412 855.952 583.544 848.941 583.952 841.943Z"/>
	<path fill="#353438" d="M520.503 989.011L542.064 989.001L542.228 1010.78L520.503 1010.77L520.503 989.011Z"/>
	<path fill="#353438" d="M520.619 883.067C527.767 883.178 534.917 883.174 542.065 883.057L542.092 905L520.581 904.989L520.619 883.067Z"/>
	<path fill="#353438" d="M247.08 231.009L267.988 230.989C267.941 280.281 267.021 329.742 267.918 379.02L289.46 379.005C310.281 378.923 331.222 378.42 352.03 379.089L352.472 379.1C359.313 378.961 366.155 378.927 372.996 378.998L373.015 588.331C380.19 588.443 387.366 588.465 394.542 588.399L394.465 609.997L415.036 609.999L415.021 631.139L436.007 631.079L436.045 652.502C436.207 659.49 436.353 666.453 436.14 673.441L478.616 673.456L478.538 694.752C487.251 694.458 512.798 692.933 519.79 695.009C521.679 700.188 520.623 707.581 520.417 713.081L520.641 715.013C522.925 716.292 596.1 715.411 605.559 715.449L605.501 736.482L605.58 757.006C598.328 757.085 591.006 757.388 583.76 757.203C583.714 764.469 583.706 771.736 583.735 779.002C576.67 778.973 569.584 779.05 562.523 778.846L562.481 798.999L583.74 798.909C583.519 813.05 582.767 827.658 583.711 841.758C576.888 842.833 568.786 842.02 561.814 841.988C561.017 827.855 561.205 813.318 562.061 799.184C555.406 798.766 548.624 798.994 541.952 798.988L541.996 820.014L520.511 819.985C520.764 827.326 521.055 834.662 520.996 842.008L500.028 841.98C492.858 841.881 485.675 841.689 478.507 841.952C473.557 842.239 468.498 842.001 463.529 842.137C454.359 842.386 444.698 843.263 435.587 842.243C428.934 841.559 422.012 841.902 415.32 841.911C401.248 841.093 387.095 841.547 373.016 841.985L352.49 841.99L352.556 820.051C345.379 819.979 338.201 819.988 331.024 820.077C330.991 813.077 330.996 806.076 331.039 799.076C325.504 798.935 319.797 798.759 314.278 799.209C312.847 799.137 311.221 799.313 310.107 798.391C308.464 786.682 309.532 769.056 310.022 757.052C310.463 738.751 310.612 720.445 310.468 702.14C310.467 692.525 310.027 682.69 310.68 673.1C310.818 666.351 311.328 659.234 310.568 652.527L332.147 652.746C330.462 642.893 331.496 629.864 331.438 619.708C331.328 599.845 331.329 579.982 331.44 560.119C331.499 548.714 331.908 537.398 331.478 525.992L310.477 525.881C311.372 519.083 310.795 511.845 310.591 505.006L289.524 504.964C289.242 498.004 289.477 490.966 289.512 483.997C282.386 483.895 275.259 483.85 268.132 483.863C267.985 469.877 267.961 455.889 268.061 441.902C261.004 442.155 253.932 441.662 246.859 441.971C247.378 433.166 247.135 424.267 247.137 415.448L247.138 372.529L247.08 231.009Z"/>
	<path fill="#D97931" d="M352.893 588.307L373.015 588.512L373.002 609.999L394.465 609.997L415.036 609.999L415.021 631.139L436.007 631.079L436.045 652.502C436.207 659.49 436.353 666.453 436.14 673.441L478.616 673.456L478.538 694.752C487.251 694.458 512.798 692.933 519.79 695.009C521.679 700.188 520.623 707.581 520.417 713.081L520.641 715.013C522.925 716.292 596.1 715.411 605.559 715.449L605.501 736.482L605.58 757.006C598.328 757.085 591.006 757.388 583.76 757.203C583.714 764.469 583.706 771.736 583.735 779.002C576.67 778.973 569.584 779.05 562.523 778.846L562.481 798.999L583.74 798.909C583.519 813.05 582.767 827.658 583.711 841.758C576.888 842.833 568.786 842.02 561.814 841.988C561.017 827.855 561.205 813.318 562.061 799.184C555.406 798.766 548.624 798.994 541.952 798.988L541.996 820.014L520.511 819.985L500.273 819.992C500.403 812.996 500.416 805.999 500.312 799.004C493.204 798.823 486.075 798.967 478.964 799.011L478.975 778.578L457.974 778.931L457.988 757.113C450.666 757.279 443.34 757.273 436.018 757.092L436.036 736.5L394.535 736.506C394.506 729.339 394.601 722.172 394.817 715.008L373.175 715.025C373.361 708.034 373.377 701.039 373.225 694.047C366.441 693.993 359.656 694.011 352.872 694.101L352.893 588.307Z"/>
	<path fill="#353438" d="M583.581 736.48L605.501 736.482L605.58 757.006C598.328 757.085 591.006 757.388 583.76 757.203C583.714 764.469 583.706 771.736 583.735 779.002C576.67 778.973 569.584 779.05 562.523 778.846L562.481 798.999L583.74 798.909C583.519 813.05 582.767 827.658 583.711 841.758C576.888 842.833 568.786 842.02 561.814 841.988C561.017 827.855 561.205 813.318 562.061 799.184C555.406 798.766 548.624 798.994 541.952 798.988L541.996 820.014L520.511 819.985L520.416 816.473C520.592 811.047 520.898 805.365 520.16 799.982C526.343 797.408 534.997 798.562 541.551 798.962L541.526 778.548C548.502 778.84 555.524 779.15 562.5 778.767C562.675 771.531 562.678 764.291 562.509 757.055C569.574 757.256 576.644 757.257 583.709 757.058L583.581 736.48Z"/>
	<path fill="#353438" d="M394.465 609.997L415.036 609.999L415.021 631.139L436.007 631.079L436.045 652.502C429.035 652.77 422.021 652.913 415.006 652.93L415.025 631.45C408.043 631.192 401.093 631.302 394.109 631.43L394.465 609.997Z"/>
	<path fill="#F4B36E" d="M520.416 816.473C519.832 815.663 519.93 815.916 519.586 814.962C518.188 811.087 518.509 803.582 520.16 799.982C520.898 805.365 520.592 811.047 520.416 816.473Z"/>
	<path fill="#F4B36E" d="M519.79 695.009C521.679 700.188 520.623 707.581 520.417 713.081L519.932 713.255C519.862 713.134 519.777 713.021 519.721 712.893C518.727 710.59 519.037 697.684 519.79 695.009Z"/>
	<path fill="#537B9C" d="M310.68 673.1C317.425 673.758 324.229 672.688 330.998 673.423L331.016 694.595L352.515 694.542L352.482 715.5L373.031 715.404L373.025 736.931L394.5 736.983C394.437 743.728 394.327 750.473 394.172 757.217C408.026 756.936 422.17 756.424 435.999 757.268C436.01 764.511 435.931 771.767 436.046 779.008L457.617 779.007C457.462 785.677 457.453 792.35 457.59 799.021L435.797 798.927C435.752 805.95 435.81 812.973 435.972 819.994C436.03 825.443 437.092 837.473 435.587 842.243C428.934 841.559 422.012 841.902 415.32 841.911C401.248 841.093 387.095 841.547 373.016 841.985L352.49 841.99L352.556 820.051C345.379 819.979 338.201 819.988 331.024 820.077C330.991 813.077 330.996 806.076 331.039 799.076C325.504 798.935 319.797 798.759 314.278 799.209C312.847 799.137 311.221 799.313 310.107 798.391C308.464 786.682 309.532 769.056 310.022 757.052C310.463 738.751 310.612 720.445 310.468 702.14C310.467 692.525 310.027 682.69 310.68 673.1Z"/>
	<path fill="#678F9D" d="M436.046 779.008L457.617 779.007C457.462 785.677 457.453 792.35 457.59 799.021L435.797 798.927C435.752 805.95 435.81 812.973 435.972 819.994C436.03 825.443 437.092 837.473 435.587 842.243C428.934 841.559 422.012 841.902 415.32 841.911C401.248 841.093 387.095 841.547 373.016 841.985C373.162 834.66 373.19 827.334 373.097 820.009C374.346 813.704 373.767 806.065 373.879 799.596C380.761 799.514 387.644 799.494 394.527 799.535L394.52 779.054L436.046 779.008Z"/>
	<path fill="#353438" d="M414.982 820.009L435.972 819.994C436.03 825.443 437.092 837.473 435.587 842.243C428.934 841.559 422.012 841.902 415.32 841.911C415.085 834.62 415.088 827.305 414.982 820.009Z"/>
	<path fill="#353438" d="M310.022 757.052C317.197 757.071 324.372 757.055 331.546 757.002L331.492 798.972L352.964 798.912C352.922 805.945 352.946 812.984 352.828 820.016L373.097 820.009C373.19 827.334 373.162 834.66 373.016 841.985L352.49 841.99L352.556 820.051C345.379 819.979 338.201 819.988 331.024 820.077C330.991 813.077 330.996 806.076 331.039 799.076C325.504 798.935 319.797 798.759 314.278 799.209C312.847 799.137 311.221 799.313 310.107 798.391C308.464 786.682 309.532 769.056 310.022 757.052Z"/>
	<path fill="#D97931" d="M289.46 379.005C310.281 378.923 331.222 378.42 352.03 379.089L352.472 379.1C352.234 406.873 352.821 434.684 352.122 462.443C345.1 462.289 338.051 462.407 331.026 462.399L330.988 420.523L289.545 420.516C289.598 425.251 290.521 436.929 289.157 440.895C288.853 432.801 289.24 424.605 289.253 416.5C289.267 407.803 288.902 399.034 289.39 390.351C289.271 386.588 289.432 382.773 289.46 379.005Z"/>
	<path fill="#F4B36E" d="M289.46 379.005C310.281 378.923 331.222 378.42 352.03 379.089L352.012 399.046C331.178 398.753 310.375 399.192 289.556 399.011C289.525 396.156 289.644 393.188 289.39 390.351C289.271 386.588 289.432 382.773 289.46 379.005Z"/>
	<path fill="#F4B36E" d="M289.545 420.516L330.988 420.523L331.026 462.399C338.051 462.407 345.1 462.289 352.122 462.443L352.113 505.52L331.486 505.388C331.459 498.181 331.495 490.974 331.594 483.767L310.49 484.015L310.505 462.503L289.296 462.402C289.156 455.234 289.11 448.065 289.157 440.895C290.521 436.929 289.598 425.251 289.545 420.516Z"/>
	<path fill="#537B9C" d="M435.797 798.927L457.59 799.021C464.559 799.005 471.594 798.81 478.543 799.356L478.512 819.989L500.034 820.002L500.028 841.98C492.858 841.881 485.675 841.689 478.507 841.952C473.557 842.239 468.498 842.001 463.529 842.137C454.359 842.386 444.698 843.263 435.587 842.243C437.092 837.473 436.03 825.443 435.972 819.994C435.81 812.973 435.752 805.95 435.797 798.927Z"/>
	<path fill="#353438" d="M435.797 798.927L457.59 799.021C457.815 806.046 457.955 813.073 458.011 820.101L435.972 819.994C435.81 812.973 435.752 805.95 435.797 798.927Z"/>
	<path fill="#353438" d="M436.045 652.502C450.361 651.916 464.662 652.031 478.986 652.09L478.869 673.255C492.858 673.515 506.808 673.373 520.796 673.218L520.83 694.131C583.78 694.001 646.8 693.459 709.743 694.078C709.488 687.176 708.994 680.002 709.613 673.113C716.395 673.081 723.258 673.277 730.029 672.993C730.002 679.891 730.406 687.054 729.848 693.915C723.221 693.935 716.568 693.839 709.944 694.02C709.963 700.993 710.154 708.016 709.921 714.982L688.509 714.998L688.485 735.996L710.018 735.993C709.955 742.986 709.963 749.98 710.039 756.973C709.758 764.347 709.735 771.62 709.885 778.998C703.624 779.086 697.341 779.523 691.085 779.481C683.384 779.429 675.69 778.918 667.986 779.019L668.004 799.522C661.011 799.09 654.004 798.914 646.998 798.996L647.011 779.485C639.92 778.3 631.912 778.996 624.689 779.004L583.735 779.002C583.706 771.736 583.714 764.469 583.76 757.203C591.006 757.388 598.328 757.085 605.58 757.006L605.501 736.482L605.559 715.449C596.1 715.411 522.925 716.292 520.641 715.013L520.417 713.081C520.623 707.581 521.679 700.188 519.79 695.009C512.798 692.933 487.251 694.458 478.538 694.752L478.616 673.456L436.14 673.441C436.353 666.453 436.207 659.49 436.045 652.502Z"/>
	<path fill="#537B9C" d="M625.92 715.502L667.25 715.514C667.052 729.355 667.15 743.199 667.543 757.035L646.996 757L647.011 779.485C639.92 778.3 631.912 778.996 624.689 779.004L583.735 779.002C583.706 771.736 583.714 764.469 583.76 757.203C591.006 757.388 598.328 757.085 605.58 757.006L605.501 736.482C612.335 736.936 619.138 736.991 625.985 737.008C625.909 729.84 625.888 722.671 625.92 715.502Z"/>
	<path fill="#537B9C" d="M667.966 757.216C681.989 757.027 696.014 756.946 710.039 756.973C709.758 764.347 709.735 771.62 709.885 778.998C703.624 779.086 697.341 779.523 691.085 779.481C683.384 779.429 675.69 778.918 667.986 779.019L667.966 757.216Z"/>
	<path fill="#D97931" d="M267.996 41.9982L372.362 42.0088C372.175 49.2629 372.185 56.5209 372.39 63.7745L372.91 63.967C373.051 78.1499 373.086 92.3338 373.015 106.517L352.204 106.469C352.395 113.312 352.481 120.158 352.46 127.004L330.987 126.996L288.991 127.012L289.018 106.53C282.025 106.308 275.007 106.444 268.011 106.475C267.727 99.1239 267.376 91.7674 267.88 84.4187C268.171 77.6347 268.007 70.792 268.001 64.0002C268.041 56.6662 268.04 49.3321 267.996 41.9982Z"/>
	<path fill="#353438" d="M267.996 41.9982L372.362 42.0088C372.175 49.2629 372.185 56.5209 372.39 63.7745C337.671 63.6618 302.693 62.4292 268.001 64.0002C268.041 56.6662 268.04 49.3321 267.996 41.9982Z"/>
	<path fill="#AE582F" d="M246.044 64.3166C253.325 63.7988 260.701 64.0005 268.001 64.0002C268.007 70.792 268.171 77.6347 267.88 84.4187C267.376 91.7674 267.727 99.1239 268.011 106.475C275.007 106.444 282.025 106.308 289.018 106.53L288.991 127.012L330.987 126.996L331.014 147.499L309.785 147.477L309.996 168.995L289.728 168.925L289.982 190.02C282.719 189.685 275.262 189.14 268.018 189.936L267.911 189.631C261.068 189.177 253.997 189.844 247.1 189.647L247.044 168.198C239.728 167.823 232.341 167.942 225.013 167.802L225 85.0017C232.325 85.0718 239.652 85.0431 246.976 84.9155L247.203 84.6762C245.842 77.9875 247.203 71.184 246.044 64.3166Z"/>
	<path fill="#353438" d="M225 85.0017C232.325 85.0718 239.652 85.0431 246.976 84.9155L247.008 147.491L268.001 147.489C268.002 161.51 268.334 175.62 267.911 189.631C261.068 189.177 253.997 189.844 247.1 189.647L247.044 168.198C239.728 167.823 232.341 167.942 225.013 167.802L225 85.0017Z"/>
	<path fill="#353438" d="M246.044 64.3166C253.325 63.7988 260.701 64.0005 268.001 64.0002C268.007 70.792 268.171 77.6347 267.88 84.4187L247.203 84.6762C245.842 77.9875 247.203 71.184 246.044 64.3166Z"/>
	<path fill="#353438" d="M372.91 63.967C379.892 63.8508 387.024 63.5391 393.996 63.9755C393.98 78.0006 393.865 92.0347 394.018 106.059C407.97 106.047 422.069 106.479 436.003 105.984L435.99 126.931C428.978 126.933 421.957 127.012 414.945 126.927L372.989 126.922L373.022 147.592L352.51 147.505L352.541 168.928C345.526 168.698 338.504 168.708 331.489 168.957L331.494 189.93L310.143 190.002C310.421 196.992 310.521 203.988 310.443 210.983L289.38 211.01L289.433 230.93L267.988 230.989C268.288 217.33 268.014 203.601 268.018 189.936C275.262 189.14 282.719 189.685 289.982 190.02L289.728 168.925L309.996 168.995L309.785 147.477L331.014 147.499L330.987 126.996L352.46 127.004C352.481 120.158 352.395 113.312 352.204 106.469L373.015 106.517C373.086 92.3338 373.051 78.1499 372.91 63.967Z"/>
	<path fill="#D97931" d="M352.9 168.95C365.409 169.525 377.752 169.025 390.256 169.01L457.98 169.05C457.959 175.986 457.698 183.012 458.156 189.932C458.745 196.906 458.59 203.997 458.552 210.993C451.203 211.018 443.269 211.621 435.994 210.778C430.828 209.847 424.812 210.381 419.539 210.43C411.208 210.524 402.876 210.565 394.544 210.553C394.674 203.546 394.617 196.536 394.373 189.532C381.568 189.679 365.317 188.122 353.018 190.028C353.049 183.001 353.01 175.975 352.9 168.95Z"/>
	<path fill="#353438" d="M289.482 358.077L352.975 358.08L352.472 379.1L352.03 379.089C331.222 378.42 310.281 378.923 289.46 379.005L289.482 358.077Z"/>
</svg>
